<svg width="941" height="159" viewBox="0 0 941 159" fill="none" xmlns="http://www.w3.org/2000/svg">
    <path
        d="M189.844 2.14844C189.714 2.66927 189.746 3.0599 189.941 3.32031L190.625 4.29688C190.495 4.55729 190.365 4.81771 190.234 5.07812C190.104 5.27344 189.974 5.5013 189.844 5.76172C189.583 6.21745 189.453 6.77083 189.453 7.42188C188.737 8.26823 188.151 9.17969 187.695 10.1562C187.24 11.1328 186.654 12.0443 185.938 12.8906C185.156 13.9974 184.408 15.1042 183.691 16.2109C182.975 17.2526 182.292 18.2943 181.641 19.3359C180.404 21.3542 179.036 23.3073 177.539 25.1953C176.953 25.9766 176.595 26.5625 176.465 26.9531C176.27 27.474 175.977 27.9297 175.586 28.3203C174.544 29.4922 173.893 30.3711 173.633 30.957C173.372 31.543 173.112 32.1615 172.852 32.8125C172.201 34.1146 171.484 35.2865 170.703 36.3281L169.824 37.8906C169.564 38.3464 169.271 38.9323 168.945 39.6484C168.294 40.6901 167.708 41.6667 167.188 42.5781C166.732 43.4245 166.146 44.401 165.43 45.5078C165.169 46.1589 164.876 46.6471 164.551 46.9727C164.16 47.3633 163.932 47.8516 163.867 48.4375C163.086 49.4792 162.305 50.4883 161.523 51.4648C160.742 52.4414 160.091 53.5156 159.57 54.6875C159.049 56.25 158.561 57.6823 158.105 58.9844C157.715 60.2865 157.031 61.5234 156.055 62.6953C155.664 63.4115 155.273 64.0625 154.883 64.6484C154.492 65.2344 154.134 65.7878 153.809 66.3086C153.483 66.7643 153.125 67.2526 152.734 67.7734C152.409 68.2943 152.083 68.8151 151.758 69.3359C151.107 70.3776 150.553 71.1263 150.098 71.582C149.642 72.0378 149.154 72.7865 148.633 73.8281C147.591 75.2604 146.615 76.7253 145.703 78.2227C144.857 79.6549 143.88 81.1198 142.773 82.6172C141.992 83.8542 141.406 84.8958 141.016 85.7422C140.56 86.7188 139.909 87.6953 139.062 88.6719C138.542 90.3646 137.565 91.7969 136.133 92.9688C134.701 95.8333 133.398 98.763 132.227 101.758C131.055 104.753 129.883 107.812 128.711 110.938C128.125 111.719 127.799 112.435 127.734 113.086C126.888 114.518 126.4 115.397 126.27 115.723C126.139 116.113 125.977 116.406 125.781 116.602C124.87 117.839 124.023 119.076 123.242 120.312C122.917 120.833 122.591 121.354 122.266 121.875C121.94 122.331 121.615 122.786 121.289 123.242C120.638 124.023 120.02 124.772 119.434 125.488C118.848 126.204 118.424 127.083 118.164 128.125C117.122 129.557 116.113 130.99 115.137 132.422C114.16 133.854 113.346 135.482 112.695 137.305C111.719 138.477 111.003 139.648 110.547 140.82C109.375 141.992 108.529 143.229 108.008 144.531C105.794 146.745 103.613 148.893 101.465 150.977C99.3164 153.06 96.9401 155.013 94.3359 156.836C94.0104 156.901 93.6849 156.966 93.3594 157.031C93.0339 157.096 92.7083 157.194 92.3828 157.324C91.7969 157.52 91.0807 157.552 90.2344 157.422C89.4531 157.357 88.7044 157.096 87.9883 156.641C87.3372 156.25 86.5885 156.12 85.7422 156.25C84.8307 155.729 83.9193 154.622 83.0078 152.93C82.7474 151.823 82.5521 150.944 82.4219 150.293C82.2917 149.577 82.0964 148.828 81.8359 148.047C81.5104 147.201 81.2174 146.419 80.957 145.703C80.7617 144.987 80.599 144.336 80.4688 143.75C80.2083 142.448 80.2409 140.983 80.5664 139.355L81.6406 134.375C82.1615 132.552 82.6497 130.697 83.1055 128.809C83.5612 126.921 83.9193 125.065 84.1797 123.242C84.5703 120.768 85.0586 118.164 85.6445 115.43C86.2305 112.695 86.7188 110.221 87.1094 108.008C87.5 106.576 87.8906 105.143 88.2812 103.711C88.6719 102.279 88.8672 100.846 88.8672 99.4141C88.8672 97.526 88.9974 95.8984 89.2578 94.5312C90.0391 90.8854 91.1133 87.2721 92.4805 83.6914C93.8477 80.1107 95.1823 76.6276 96.4844 73.2422C96.7448 72.5911 97.0052 71.8424 97.2656 70.9961C97.526 70.1497 97.7214 69.3359 97.8516 68.5547C97.9167 68.0339 97.9492 67.5456 97.9492 67.0898C98.0143 66.6341 98.0469 66.1784 98.0469 65.7227C98.0469 65.2669 98.0469 64.8112 98.0469 64.3555C98.112 63.8997 98.1771 63.4115 98.2422 62.8906C98.5026 61.9141 98.6328 61.1328 98.6328 60.5469C98.6328 60.026 98.6003 59.6354 98.5352 59.375C98.4701 59.1146 98.5026 58.724 98.6328 58.2031C98.6328 57.5521 98.7305 56.901 98.9258 56.25C99.056 55.9245 99.1536 55.5664 99.2188 55.1758C99.349 54.7852 99.4792 54.362 99.6094 53.9062C99.7396 52.8646 99.8047 52.0833 99.8047 51.5625C99.8047 51.1719 99.8047 50.7812 99.8047 50.3906C99.8698 49.9349 99.9349 49.4792 100 49.0234C97.8516 51.6927 95.8008 54.362 93.8477 57.0312C91.8945 59.6354 90.0716 62.2396 88.3789 64.8438C86.6862 67.4479 84.9284 70.0521 83.1055 72.6562C81.3477 75.2604 79.5573 77.8646 77.7344 80.4688C77.0833 81.8359 76.3021 83.138 75.3906 84.375C74.4141 85.612 73.5677 86.849 72.8516 88.0859C72.526 88.6068 72.168 89.1602 71.7773 89.7461C71.4518 90.2669 71.0938 90.7878 70.7031 91.3086C70.3125 91.8294 69.9219 92.3828 69.5312 92.9688C69.2057 93.4896 68.8802 94.0104 68.5547 94.5312C68.2943 95.1172 68.0339 95.7031 67.7734 96.2891C67.5781 96.8099 67.3828 97.3307 67.1875 97.8516C66.7969 99.0234 66.276 100 65.625 100.781C65.4297 101.107 65.2018 101.432 64.9414 101.758C64.7461 102.083 64.5182 102.409 64.2578 102.734C63.9974 103.06 63.737 103.385 63.4766 103.711C63.2812 104.036 63.0859 104.362 62.8906 104.688L60.8398 106.641C60.5143 106.966 60.1562 107.292 59.7656 107.617C59.4401 107.943 59.1146 108.268 58.7891 108.594C58.2682 108.789 57.5521 109.538 56.6406 110.84C55.7943 112.142 54.9479 113.509 54.1016 114.941C53.2552 116.309 52.6693 117.253 52.3438 117.773C51.1719 120.638 49.8698 123.307 48.4375 125.781C47.0052 128.255 45.5078 130.729 43.9453 133.203C43.6849 133.594 43.4245 133.984 43.1641 134.375C42.9688 134.766 42.7409 135.189 42.4805 135.645C41.9596 136.621 41.4062 137.435 40.8203 138.086C39.4531 140.169 38.3789 141.96 37.5977 143.457C36.6862 145.15 35.5469 146.549 34.1797 147.656C33.9193 148.307 33.5938 148.861 33.2031 149.316C32.7474 149.837 32.487 150.391 32.4219 150.977C31.7057 151.758 30.7943 152.344 29.6875 152.734C28.3854 153.19 27.2135 153.711 26.1719 154.297C25.2604 154.818 24.1862 155.273 22.9492 155.664C21.7122 156.055 20.3776 155.924 18.9453 155.273C18.75 155.208 18.4896 154.948 18.1641 154.492C17.9036 154.102 17.5781 153.906 17.1875 153.906C16.862 153.06 16.4388 152.507 15.918 152.246C15.3971 151.986 14.8438 151.562 14.2578 150.977C14.0625 150.781 13.8346 150.488 13.5742 150.098C13.5091 149.967 13.4115 149.805 13.2812 149.609C13.151 149.414 13.0208 149.219 12.8906 149.023C12.1094 148.112 11.3607 147.103 10.6445 145.996C9.92839 144.889 9.375 143.62 8.98438 142.188C8.98438 141.797 8.95182 141.439 8.88672 141.113C8.82161 140.788 8.78906 140.365 8.78906 139.844C8.72396 139.388 8.5612 138.835 8.30078 138.184C8.10547 137.663 8.00781 136.979 8.00781 136.133C8.07292 135.612 8.17057 135.124 8.30078 134.668C8.43099 134.147 8.5612 133.659 8.69141 133.203L9.57031 130.469C9.83073 129.492 10.1237 128.581 10.4492 127.734C10.7747 126.823 11.1003 125.944 11.4258 125.098C11.7513 124.251 12.0768 123.372 12.4023 122.461C12.7279 121.549 13.0208 120.573 13.2812 119.531C13.737 117.969 14.2578 116.667 14.8438 115.625C15.4948 113.672 15.9831 112.24 16.3086 111.328C16.6992 110.417 17.2526 108.984 17.9688 107.031C18.3594 104.948 18.8477 103.092 19.4336 101.465L21.2891 96.2891C21.8099 94.2057 22.7539 91.3086 24.1211 87.5977C25.4883 83.8216 26.8229 80.0781 28.125 76.3672C29.4271 72.5911 30.2083 69.7266 30.4688 67.7734C30.8594 67.1224 31.1849 66.3737 31.4453 65.5273C31.5755 65.0716 31.7057 64.681 31.8359 64.3555C31.9661 63.9648 32.0964 63.6068 32.2266 63.2812C32.7474 61.4583 33.4961 59.082 34.4727 56.1523C35.5143 53.2227 36.3932 50.651 37.1094 48.4375C38.0208 45.7031 38.8997 43.0339 39.7461 40.4297C40.5924 37.8255 41.276 35.4818 41.7969 33.3984C42.3177 32.2266 42.6758 30.6966 42.8711 28.8086C43.0664 26.9206 43.1641 25.0651 43.1641 23.2422C39.974 25.4557 37.3372 27.5065 35.2539 29.3945C34.2122 30.306 33.1706 31.2174 32.1289 32.1289C31.0872 33.0404 30.013 33.9193 28.9062 34.7656C28.3854 35.612 27.7018 36.263 26.8555 36.7188C26.2044 37.1094 25.4557 37.8255 24.6094 38.8672C23.9583 38.9323 23.4375 39.2253 23.0469 39.7461C22.7214 40.1367 22.2005 40.4948 21.4844 40.8203C20.1172 41.3411 18.4896 41.6016 16.6016 41.6016C16.3411 41.6016 15.9505 41.5365 15.4297 41.4062C14.9089 41.276 14.5182 41.2109 14.2578 41.2109C13.6068 41.2109 12.8255 41.4062 11.9141 41.7969L9.57031 42.7734C9.3099 42.9036 9.04948 43.0339 8.78906 43.1641C8.59375 43.2943 8.43099 43.4245 8.30078 43.5547C8.17057 43.6849 7.97526 43.8151 7.71484 43.9453C7.51953 44.0755 7.29167 44.2057 7.03125 44.3359C6.38021 44.5964 5.79427 44.6289 5.27344 44.4336C4.6875 44.1732 4.10156 44.0104 3.51562 43.9453C2.86458 43.8151 2.40885 43.7826 2.14844 43.8477C1.82292 43.9128 1.43229 43.6849 0.976562 43.1641C1.30208 42.4479 1.66016 41.9271 2.05078 41.6016C2.44141 41.276 2.79948 40.7552 3.125 40.0391C4.23177 39.3229 5.20833 38.3464 6.05469 37.1094C6.77083 36.7839 7.29167 36.4258 7.61719 36.0352C7.8776 35.7096 8.33333 35.2865 8.98438 34.7656C9.4401 34.3099 9.89583 33.9518 10.3516 33.6914C10.8073 33.431 11.263 33.0078 11.7188 32.4219C13.2161 31.7057 14.4857 30.8268 15.5273 29.7852C16.6341 28.6784 17.9036 27.7995 19.3359 27.1484C20.8333 26.237 21.8424 25.5534 22.3633 25.0977C23.0143 24.5768 23.763 24.0885 24.6094 23.6328C25.2604 23.112 25.7487 22.6888 26.0742 22.3633C26.3997 22.0378 26.888 21.6146 27.5391 21.0938C28.1901 20.5729 28.8086 20.0846 29.3945 19.6289C30.0456 19.1732 30.6641 18.7174 31.25 18.2617L34.7656 15.625C36.0677 13.8021 37.4023 12.5 38.7695 11.7188C40.1367 10.9375 41.5365 10.2214 42.9688 9.57031C43.6198 9.17969 44.2708 8.82161 44.9219 8.49609C45.5729 8.17057 46.2891 8.07292 47.0703 8.20312C47.5911 8.20312 47.9492 8.23568 48.1445 8.30078C48.3398 8.36589 48.6979 8.39844 49.2188 8.39844C50.4557 8.39844 51.3997 8.65885 52.0508 9.17969C52.832 9.83073 53.5807 10.3516 54.2969 10.7422C54.9479 11.263 55.4362 11.6211 55.7617 11.8164C56.1523 12.0768 56.5104 12.5651 56.8359 13.2812C57.487 13.2812 58.138 13.6068 58.7891 14.2578C58.9193 14.6484 59.0495 15.0391 59.1797 15.4297C59.375 15.8203 59.5703 16.1784 59.7656 16.5039C60.1562 17.1549 60.2865 18.0339 60.1562 19.1406C60.0911 19.4661 60.026 19.7917 59.9609 20.1172C59.8958 20.3776 59.8307 20.6706 59.7656 20.9961C59.7005 21.2565 59.6354 21.5495 59.5703 21.875C59.5052 22.2005 59.4401 22.526 59.375 22.8516C58.8542 23.763 58.4635 24.5443 58.2031 25.1953C57.9427 25.8464 57.6823 26.4974 57.4219 27.1484C57.1615 27.6042 57.0638 28.1901 57.1289 28.9062C57.194 29.2969 57.1615 29.9479 57.0312 30.8594C56.901 31.5104 56.7383 32.1615 56.543 32.8125C56.4128 33.4635 56.25 34.1146 56.0547 34.7656C55.8594 35.4167 55.6641 36.1003 55.4688 36.8164C55.3385 37.4674 55.2083 38.151 55.0781 38.8672C54.8177 39.1927 54.6875 39.6159 54.6875 40.1367C54.6875 40.4622 54.6224 40.8854 54.4922 41.4062C53.6458 43.0339 52.7344 45.0521 51.7578 47.4609C50.8464 49.8698 50.1302 51.8229 49.6094 53.3203C49.349 54.2969 49.056 55.2083 48.7305 56.0547C48.4049 56.901 48.112 57.8125 47.8516 58.7891C47.7214 59.3099 47.5911 59.8633 47.4609 60.4492C47.3307 60.9701 47.2005 61.556 47.0703 62.207C46.9401 62.8581 46.8099 63.4766 46.6797 64.0625C46.5495 64.6484 46.4193 65.2344 46.2891 65.8203C45.8984 66.9922 45.5404 68.1641 45.2148 69.3359C44.8893 70.5078 44.5964 71.6797 44.3359 72.8516C44.2057 73.3724 43.75 74.8372 42.9688 77.2461C42.2526 79.6549 41.5365 82.0312 40.8203 84.375C40.1693 86.7188 39.8438 88.0859 39.8438 88.4766C39.7135 88.9974 39.681 89.388 39.7461 89.6484C39.8112 89.974 39.6484 90.2995 39.2578 90.625C39.2578 91.6667 39.0299 92.6107 38.5742 93.457C38.3138 93.9128 38.0534 94.3685 37.793 94.8242C37.5977 95.2799 37.3698 95.7682 37.1094 96.2891C36.9141 96.8099 36.7188 97.3307 36.5234 97.8516C36.3932 98.3073 36.263 98.7956 36.1328 99.3164C35.8073 100.488 35.3516 101.432 34.7656 102.148C34.1797 103.971 33.431 106.087 32.5195 108.496C31.6732 110.905 30.9896 112.793 30.4688 114.16C29.1667 117.741 27.9297 121.94 26.7578 126.758C27.0182 127.018 27.3112 127.311 27.6367 127.637C27.9622 127.962 28.2552 128.125 28.5156 128.125C29.1667 128.125 30.013 127.799 31.0547 127.148C32.2266 126.628 33.0729 126.107 33.5938 125.586C33.9193 125.26 34.1146 124.935 34.1797 124.609C34.2448 124.414 34.3099 124.251 34.375 124.121C34.4401 123.926 34.5052 123.763 34.5703 123.633C35.3516 122.721 35.8073 122.005 35.9375 121.484C36.0677 120.964 36.3281 120.638 36.7188 120.508C37.0443 119.01 37.5977 117.904 38.3789 117.188C39.2253 116.471 39.8438 115.43 40.2344 114.062C40.6901 113.737 40.9505 113.314 41.0156 112.793C41.0807 112.272 41.3411 111.849 41.7969 111.523C42.3177 110.156 43.3594 108.138 44.9219 105.469C46.4844 102.734 47.5911 100.781 48.2422 99.6094C48.3724 99.1536 48.5026 98.7305 48.6328 98.3398C48.8281 97.8841 49.056 97.4935 49.3164 97.168C49.5768 96.8424 49.8047 96.4844 50 96.0938C50.2604 95.638 50.5208 95.1823 50.7812 94.7266L53.125 91.2109C53.5156 90.5599 53.9062 90.0391 54.2969 89.6484C54.6875 89.2578 55.1432 88.737 55.6641 88.0859C55.9245 87.5651 56.1523 87.1419 56.3477 86.8164C56.543 86.4909 56.7708 86.1328 57.0312 85.7422L59.375 82.6172C59.8958 81.9661 60.319 81.4779 60.6445 81.1523L62.1094 79.6875C63.151 78.3854 63.8672 77.2786 64.2578 76.3672C64.7135 75.1953 65.3646 74.1536 66.2109 73.2422C66.862 71.5495 67.6432 69.987 68.5547 68.5547C69.4661 67.1224 70.4427 65.6901 71.4844 64.2578C72.2656 62.6953 73.0469 61.1654 73.8281 59.668C74.6094 58.1706 75.5208 56.7057 76.5625 55.2734C77.3438 53.5807 78.3203 52.1484 79.4922 50.9766C80.2734 49.4141 80.7292 48.6328 80.8594 48.6328C81.5755 47.526 82.2917 46.4518 83.0078 45.4102C83.724 44.3685 84.4401 43.3594 85.1562 42.3828C86.4583 40.625 87.9557 38.5417 89.6484 36.1328C89.974 35.7422 90.2669 35.3516 90.5273 34.9609C90.7878 34.5703 91.0482 34.1797 91.3086 33.7891C91.8294 32.9427 92.3828 32.2266 92.9688 31.6406C94.0104 29.8177 95.0521 28.2552 96.0938 26.9531C97.1354 25.651 98.1771 24.4792 99.2188 23.4375C100.781 22.3307 101.79 21.7448 102.246 21.6797C102.702 21.6146 103.125 21.4193 103.516 21.0938C104.622 20.3776 105.306 19.8893 105.566 19.6289L106.445 18.75C106.706 18.4896 106.966 18.1966 107.227 17.8711C107.487 17.5456 107.617 17.1875 107.617 16.7969L108.887 15.625C109.277 15.2344 109.57 14.9089 109.766 14.6484C110.417 13.9974 110.97 13.3464 111.426 12.6953C111.882 12.0443 112.63 12.0443 113.672 12.6953C114.258 13.0208 114.779 13.6068 115.234 14.4531C115.951 15.1693 116.471 15.9505 116.797 16.7969C116.927 17.513 116.895 18.2617 116.699 19.043C116.504 19.9544 116.536 20.7682 116.797 21.4844C117.057 22.2005 117.318 22.9167 117.578 23.6328C117.839 24.349 118.099 25.0651 118.359 25.7812C118.88 27.4089 119.01 29.1667 118.75 31.0547C118.229 32.0312 117.871 33.1055 117.676 34.2773C117.611 34.9284 117.513 35.5794 117.383 36.2305C117.253 36.8164 117.122 37.4349 116.992 38.0859C116.602 39.7135 116.211 40.9505 115.82 41.7969C115.43 42.6432 115.299 43.4896 115.43 44.3359C114.844 45.5729 114.518 46.6797 114.453 47.6562C114.388 48.763 114.193 49.8698 113.867 50.9766C113.411 53.125 112.891 54.9805 112.305 56.543C111.654 58.3008 111.263 60.1562 111.133 62.1094C111.068 63.9323 110.677 66.1133 109.961 68.6523C109.635 69.8893 109.342 71.0938 109.082 72.2656C108.887 73.3724 108.724 74.4141 108.594 75.3906C108.333 76.237 108.301 76.9857 108.496 77.6367C108.691 78.2227 108.789 78.9062 108.789 79.6875C108.529 81.5104 108.398 82.9753 108.398 84.082C108.398 84.5378 108.366 84.9935 108.301 85.4492C108.301 85.8398 108.268 86.263 108.203 86.7188C108.138 87.0443 108.073 87.4023 108.008 87.793C107.943 88.1185 107.878 88.444 107.812 88.7695C107.747 89.0951 107.682 89.4531 107.617 89.8438C107.552 90.1693 107.487 90.4948 107.422 90.8203C107.161 91.6667 106.966 92.5456 106.836 93.457C106.771 94.1732 106.51 94.9219 106.055 95.7031C105.924 96.4844 105.794 97.2656 105.664 98.0469C105.534 98.8281 105.404 99.6419 105.273 100.488C104.948 102.376 104.622 103.841 104.297 104.883C104.427 105.404 104.395 105.892 104.199 106.348C103.939 106.999 103.776 107.487 103.711 107.812C103.451 108.464 103.353 109.18 103.418 109.961C103.483 110.742 103.385 111.458 103.125 112.109L102.832 114.355C102.702 115.332 102.539 116.081 102.344 116.602C101.628 118.294 101.335 119.596 101.465 120.508C101.53 121.354 101.367 122.135 100.977 122.852C101.107 123.958 100.879 125.033 100.293 126.074C99.707 127.181 99.5443 128.255 99.8047 129.297C100.456 128.841 100.977 128.255 101.367 127.539C101.562 127.214 101.758 126.888 101.953 126.562C102.214 126.237 102.474 125.911 102.734 125.586C102.995 125.13 103.451 124.577 104.102 123.926C104.362 123.665 104.622 123.405 104.883 123.145C105.143 122.884 105.404 122.591 105.664 122.266C106.706 121.224 107.617 119.987 108.398 118.555C109.18 117.122 109.896 115.69 110.547 114.258C110.807 113.867 111.1 113.281 111.426 112.5C111.751 111.719 112.044 111.003 112.305 110.352C113.607 108.333 114.779 106.12 115.82 103.711C116.081 103.19 116.309 102.702 116.504 102.246C116.699 101.79 116.862 101.302 116.992 100.781C117.188 100.195 117.35 99.6094 117.48 99.0234C117.676 98.4375 117.839 97.8516 117.969 97.2656C118.099 96.6797 118.229 96.0938 118.359 95.5078C118.555 94.9219 118.75 94.3359 118.945 93.75C119.141 93.4245 119.368 92.9362 119.629 92.2852C119.889 91.6341 120.117 91.1458 120.312 90.8203C121.68 87.9557 123.112 85.5469 124.609 83.5938C125.586 81.5104 126.986 78.9388 128.809 75.8789C130.697 72.7539 132.096 70.1823 133.008 68.1641C133.464 67.8385 133.757 67.4805 133.887 67.0898C134.082 66.569 134.31 66.1458 134.57 65.8203C134.961 64.2578 135.384 63.0534 135.84 62.207C136.23 61.3607 136.654 60.3516 137.109 59.1797C137.5 58.8542 137.793 58.4635 137.988 58.0078C138.184 57.487 138.477 57.0964 138.867 56.8359C139.323 55.7292 139.876 54.6875 140.527 53.7109L142.383 50.7812C143.229 49.4792 143.88 48.3724 144.336 47.4609C145.117 45.8984 145.573 45.0521 145.703 44.9219C146.289 44.2708 146.875 43.4896 147.461 42.5781C148.047 41.6016 148.503 40.9505 148.828 40.625C149.414 39.2578 149.87 38.444 150.195 38.1836C150.521 37.8581 150.977 36.9792 151.562 35.5469C152.669 34.0495 153.255 33.138 153.32 32.8125C153.385 32.487 153.906 31.6406 154.883 30.2734C155.208 29.9479 155.404 29.5573 155.469 29.1016C155.599 28.5807 155.794 28.1901 156.055 27.9297C157.292 26.3021 158.04 25.2604 158.301 24.8047C158.626 24.2188 158.984 23.6979 159.375 23.2422C160.026 22.3307 160.677 21.4193 161.328 20.5078C161.979 19.5964 162.63 18.6198 163.281 17.5781C163.932 16.9271 164.583 16.3737 165.234 15.918C165.951 15.3971 166.602 14.8438 167.188 14.2578C168.034 14.2578 168.945 13.6068 169.922 12.3047C171.549 11.9141 172.884 11.1979 173.926 10.1562C174.447 9.63542 175 9.11458 175.586 8.59375C176.237 8.07292 176.888 7.55208 177.539 7.03125C178.451 6.38021 179.329 5.72917 180.176 5.07812C181.022 4.42708 181.771 3.64583 182.422 2.73438C183.594 1.69271 184.928 1.10677 186.426 0.976562C187.923 0.846354 189.062 1.23698 189.844 2.14844ZM234.57 93.5547C235.221 93.6198 235.645 93.8802 235.84 94.3359C236.035 94.7266 236.393 94.9219 236.914 94.9219C237.174 96.1589 236.914 97.0378 236.133 97.5586C235.352 98.0143 235.091 98.763 235.352 99.8047C234.18 100.586 232.747 101.074 231.055 101.27C229.297 101.465 227.995 102.148 227.148 103.32C224.87 104.427 222.493 105.111 220.02 105.371C218.783 105.501 217.48 105.697 216.113 105.957C214.811 106.152 213.477 106.38 212.109 106.641C210.677 107.617 209.798 108.138 209.473 108.203C209.017 108.268 208.529 108.464 208.008 108.789C206.641 108.268 205.273 108.008 203.906 108.008C202.539 108.008 201.107 107.812 199.609 107.422C198.893 107.682 198.145 107.812 197.363 107.812C196.582 107.812 195.833 107.943 195.117 108.203C194.596 109.375 194.336 110.547 194.336 111.719C194.336 112.956 194.141 114.128 193.75 115.234L192.578 117.578L192.285 119.434C192.155 120.215 191.992 120.833 191.797 121.289C191.536 121.68 191.243 122.135 190.918 122.656C190.592 123.177 190.43 123.763 190.43 124.414C189.518 125.586 188.867 126.79 188.477 128.027C188.086 129.46 187.37 130.599 186.328 131.445C185.938 132.812 185.319 133.854 184.473 134.57C183.626 135.352 182.812 136.263 182.031 137.305C180.599 139.258 179.329 140.951 178.223 142.383C177.116 143.815 175.651 145.052 173.828 146.094C173.177 147.135 172.396 147.852 171.484 148.242C170.833 148.893 170.312 149.544 169.922 150.195L166.016 152.539C164.453 153.516 162.956 154.167 161.523 154.492C159.31 155.013 157.161 154.948 155.078 154.297C152.995 153.646 151.042 152.734 149.219 151.562C147.982 151.693 147.038 151.465 146.387 150.879C145.736 150.358 144.857 149.935 143.75 149.609C142.318 148.307 140.755 147.135 139.062 146.094C137.305 144.987 136.068 143.555 135.352 141.797L134.473 137.5C134.212 136.198 133.919 134.896 133.594 133.594C133.333 132.487 133.301 131.25 133.496 129.883C133.691 128.711 133.724 127.409 133.594 125.977C133.594 125.26 133.594 124.609 133.594 124.023C133.594 123.372 133.561 122.819 133.496 122.363C133.431 121.387 133.724 120.182 134.375 118.75C134.766 117.904 135.091 117.122 135.352 116.406C135.612 115.69 135.807 115.072 135.938 114.551C136.068 114.03 136.198 113.542 136.328 113.086C136.458 112.565 136.589 112.109 136.719 111.719C136.914 111.393 137.109 111.068 137.305 110.742C137.5 110.352 137.695 109.961 137.891 109.57C138.086 109.18 138.281 108.822 138.477 108.496C138.737 108.105 138.997 107.747 139.258 107.422C140.039 106.25 140.951 105.078 141.992 103.906C143.034 102.734 144.076 101.628 145.117 100.586C145.833 99.6094 146.549 98.763 147.266 98.0469C148.438 96.875 149.544 95.8984 150.586 95.1172C151.628 94.3359 152.799 93.2943 154.102 91.9922C154.362 91.6016 154.688 91.276 155.078 91.0156L156.25 90.2344C157.552 89.4531 158.757 88.8021 159.863 88.2812C160.97 87.7604 162.24 87.1745 163.672 86.5234C164.909 85.9375 165.918 85.5794 166.699 85.4492C167.22 85.319 167.741 85.2214 168.262 85.1562C168.848 85.026 169.466 84.8958 170.117 84.7656H172.461C173.177 84.7656 173.828 84.6354 174.414 84.375C174.023 83.3333 174.479 82.6172 175.781 82.2266C177.083 81.8359 178.06 81.7057 178.711 81.8359C180.013 81.8359 181.055 82.1289 181.836 82.7148C182.617 83.3008 183.333 83.9844 183.984 84.7656C185.286 85.6771 186.719 87.0443 188.281 88.8672C188.607 89.1927 188.932 89.388 189.258 89.4531C189.583 89.5182 189.909 89.7135 190.234 90.0391C190.755 90.8203 191.113 91.5365 191.309 92.1875C191.504 92.9688 191.927 93.6849 192.578 94.3359C192.969 94.5964 193.359 94.9219 193.75 95.3125C194.141 95.7031 194.401 96.224 194.531 96.875C195.898 97.3958 197.135 97.7865 198.242 98.0469C198.828 98.3073 199.512 98.3724 200.293 98.2422C201.009 98.112 201.823 98.112 202.734 98.2422C203.32 98.3073 203.906 98.4701 204.492 98.7305C205.013 98.9258 205.599 99.0234 206.25 99.0234C207.227 98.9583 208.301 98.6979 209.473 98.2422C210.579 97.8516 211.849 97.7865 213.281 98.0469C215.234 98.5026 217.285 98.3073 219.434 97.4609C221.582 96.5495 223.763 95.9635 225.977 95.7031C226.628 95.7031 227.083 95.6706 227.344 95.6055C227.604 95.5404 228.06 95.5078 228.711 95.5078C229.362 94.987 230.208 94.5964 231.25 94.3359C232.292 94.0755 233.398 93.8151 234.57 93.5547ZM178.711 99.4141C177.409 98.2422 176.66 97.4935 176.465 97.168C176.204 96.7773 175.977 96.5495 175.781 96.4844C175.195 95.8984 174.544 95.5729 173.828 95.5078C173.438 95.4427 173.047 95.3776 172.656 95.3125C172.331 95.2474 172.005 95.1823 171.68 95.1172C169.596 94.7266 167.871 94.9544 166.504 95.8008C165.853 96.2565 165.169 96.6797 164.453 97.0703C163.802 97.4609 163.151 97.8516 162.5 98.2422C160.417 99.5443 158.594 101.172 157.031 103.125C156.641 103.776 156.217 104.492 155.762 105.273C155.306 106.055 154.948 106.901 154.688 107.812C154.167 108.854 153.711 109.798 153.32 110.645C152.93 111.491 152.604 112.5 152.344 113.672C151.693 114.909 151.302 115.983 151.172 116.895C151.107 117.35 151.042 117.773 150.977 118.164C150.911 118.49 150.846 118.815 150.781 119.141C150.716 119.792 150.618 120.475 150.488 121.191C150.358 121.842 150.228 122.526 150.098 123.242C149.772 124.87 149.609 126.107 149.609 126.953C149.74 127.344 149.935 127.865 150.195 128.516C150.456 129.167 150.716 129.622 150.977 129.883C151.237 130.534 151.53 131.25 151.855 132.031C152.181 132.812 152.474 133.398 152.734 133.789C153.451 134.701 154.297 135.286 155.273 135.547C155.794 135.677 156.348 135.84 156.934 136.035C157.52 136.165 158.138 136.328 158.789 136.523C160.221 137.305 161.198 137.63 161.719 137.5C162.37 137.37 162.76 137.305 162.891 137.305C164.648 136.979 166.146 136.263 167.383 135.156C168.49 134.115 169.792 133.203 171.289 132.422C171.81 131.641 172.331 130.827 172.852 129.98C173.438 129.134 174.056 128.288 174.707 127.441C175.358 126.53 175.944 125.651 176.465 124.805C177.051 123.893 177.604 122.982 178.125 122.07C178.451 121.68 178.776 121.094 179.102 120.312C179.232 119.987 179.362 119.694 179.492 119.434C179.622 119.108 179.753 118.815 179.883 118.555C180.794 117.448 181.217 116.862 181.152 116.797C181.087 116.732 181.12 116.536 181.25 116.211C182.096 114.258 182.487 112.76 182.422 111.719C182.357 110.677 182.357 109.635 182.422 108.594C182.096 107.878 181.803 107.129 181.543 106.348C181.283 105.566 181.022 104.753 180.762 103.906C180.241 102.148 179.557 100.651 178.711 99.4141ZM227.539 125.977C228.581 125.326 229.427 124.479 230.078 123.438C230.404 122.917 230.762 122.396 231.152 121.875C231.543 121.354 231.966 120.833 232.422 120.312C234.115 118.359 235.938 116.732 237.891 115.43C238.802 114.062 239.941 113.053 241.309 112.402C242.676 111.686 243.75 110.612 244.531 109.18C244.727 108.919 244.954 108.529 245.215 108.008C245.475 107.487 245.703 107.096 245.898 106.836C248.372 103.385 251.042 100.521 253.906 98.2422C254.297 97.9167 254.688 97.5911 255.078 97.2656C255.469 96.9401 255.827 96.6146 256.152 96.2891C256.673 95.7682 257.552 95.1172 258.789 94.3359C259.375 94.0104 259.961 93.6523 260.547 93.2617C261.133 92.806 261.686 92.3177 262.207 91.7969C263.249 90.7552 264.453 89.974 265.82 89.4531C266.667 89.0625 267.513 88.7695 268.359 88.5742C268.75 88.444 269.141 88.3464 269.531 88.2812C269.987 88.151 270.443 88.0208 270.898 87.8906C271.81 87.6302 272.624 87.4023 273.34 87.207C274.056 87.0117 274.87 87.0443 275.781 87.3047C277.865 88.151 279.427 89.9089 280.469 92.5781C280.859 93.5547 280.632 95.6055 279.785 98.7305C279.004 101.855 278.06 105.111 276.953 108.496C275.846 111.816 275.065 114.388 274.609 116.211C274.349 117.188 274.284 117.741 274.414 117.871C274.544 118.001 274.609 118.164 274.609 118.359C274.349 119.01 274.154 119.596 274.023 120.117C273.893 120.638 273.763 121.224 273.633 121.875C273.372 122.917 273.177 124.316 273.047 126.074C272.917 127.832 272.982 129.232 273.242 130.273C274.544 130.208 275.293 130.078 275.488 129.883C275.618 129.753 275.781 129.688 275.977 129.688C276.497 129.557 276.921 129.525 277.246 129.59C277.572 129.655 277.995 129.622 278.516 129.492C281.185 128.776 283.594 127.344 285.742 125.195C286.914 124.674 288.021 124.154 289.062 123.633C290.169 123.112 291.211 122.591 292.188 122.07C294.01 120.768 295.475 119.824 296.582 119.238C297.689 118.652 299.349 117.839 301.562 116.797C302.409 115.82 303.548 115.007 304.98 114.355C306.283 113.77 307.552 112.956 308.789 111.914C309.18 111.523 309.505 111.165 309.766 110.84C310.156 110.319 310.547 110.221 310.938 110.547C311.589 111.198 312.012 111.882 312.207 112.598C312.402 113.314 312.435 113.802 312.305 114.062C311.328 115.039 310.775 115.82 310.645 116.406C310.514 116.992 310.352 117.383 310.156 117.578C309.505 118.229 308.529 118.815 307.227 119.336C306.12 119.792 305.436 120.215 305.176 120.605C304.915 120.996 304.688 121.289 304.492 121.484C304.102 121.875 303.743 122.168 303.418 122.363C303.092 122.559 302.734 122.852 302.344 123.242C302.083 123.633 301.725 123.861 301.27 123.926L300 124.219C299.219 124.87 298.568 125.456 298.047 125.977C297.526 126.497 296.94 127.083 296.289 127.734C295.312 128.711 294.661 129.46 294.336 129.98C294.076 130.436 293.359 131.055 292.188 131.836L288.281 134.18C286.458 135.091 284.635 136.198 282.812 137.5C280.99 138.802 279.167 140.104 277.344 141.406C276.172 142.122 274.837 142.806 273.34 143.457C271.973 144.043 270.703 144.727 269.531 145.508C268.945 145.508 268.587 145.475 268.457 145.41C268.262 145.28 267.904 145.378 267.383 145.703C266.732 145.378 266.081 145.345 265.43 145.605C264.714 145.931 264.062 145.964 263.477 145.703C262.826 145.182 262.272 144.759 261.816 144.434C261.426 144.108 261.1 143.88 260.84 143.75C260.449 143.49 260.091 143.164 259.766 142.773C259.505 142.122 259.408 141.406 259.473 140.625C259.538 139.844 259.375 139.193 258.984 138.672C258.984 135.807 259.082 133.073 259.277 130.469C259.473 127.865 259.896 125.13 260.547 122.266C260.677 121.354 261.003 119.792 261.523 117.578C262.044 115.299 262.467 113.118 262.793 111.035C263.118 108.952 263.021 107.747 262.5 107.422C261.068 108.203 259.603 109.375 258.105 110.938C257.389 111.719 256.673 112.435 255.957 113.086C255.241 113.737 254.557 114.323 253.906 114.844L250.879 116.992C250.423 117.318 249.935 117.676 249.414 118.066C248.893 118.392 248.372 118.75 247.852 119.141C246.94 119.792 246.159 120.443 245.508 121.094C244.857 121.745 244.141 122.526 243.359 123.438C242.904 123.893 242.448 124.349 241.992 124.805C241.602 125.195 241.211 125.618 240.82 126.074C240.039 126.921 239.128 127.734 238.086 128.516C237.435 129.167 236.947 129.59 236.621 129.785C236.296 129.98 235.872 130.339 235.352 130.859L233.496 132.715C232.91 133.301 232.161 133.789 231.25 134.18C229.167 136.979 226.823 139.681 224.219 142.285C221.68 144.889 219.661 147.526 218.164 150.195C216.602 151.497 214.941 152.637 213.184 153.613C211.426 154.59 209.31 154.688 206.836 153.906C205.534 153.125 204.688 152.474 204.297 151.953C203.906 151.497 203.451 151.107 202.93 150.781C203.06 149.349 203.19 147.982 203.32 146.68C203.451 145.378 203.841 144.01 204.492 142.578L205.664 140.625C206.315 139.518 206.738 138.216 206.934 136.719C207.129 135.156 207.552 133.789 208.203 132.617C208.984 131.315 209.473 130.241 209.668 129.395C209.863 128.613 210.156 127.865 210.547 127.148C210.872 126.367 211.23 125.749 211.621 125.293C212.012 124.837 212.37 124.219 212.695 123.438C213.021 122.721 213.477 121.973 214.062 121.191C214.648 120.41 215.104 119.661 215.43 118.945C216.211 116.146 217.253 113.281 218.555 110.352C218.815 109.44 219.076 108.561 219.336 107.715C219.596 106.868 219.922 106.055 220.312 105.273C220.638 104.557 220.964 103.841 221.289 103.125C221.615 102.409 221.94 101.725 222.266 101.074C222.591 100.358 222.917 99.6745 223.242 99.0234C223.568 98.3073 223.893 97.5911 224.219 96.875C224.609 96.0938 224.967 95.4102 225.293 94.8242C225.618 94.2383 226.042 93.6198 226.562 92.9688C226.758 92.6432 226.953 92.3177 227.148 91.9922C227.344 91.6667 227.507 91.3411 227.637 91.0156C227.767 90.6901 227.93 90.3646 228.125 90.0391C228.32 89.7135 228.516 89.388 228.711 89.0625C228.906 88.737 229.102 88.4115 229.297 88.0859C229.492 87.6953 229.655 87.2721 229.785 86.8164C230.046 85.9701 230.534 85.1562 231.25 84.375C231.706 83.8542 232.096 83.3659 232.422 82.9102C232.812 82.3893 233.138 81.901 233.398 81.4453C233.854 80.599 234.701 80.013 235.938 79.6875C237.044 80.2083 238.184 80.013 239.355 79.1016C240.592 78.125 241.602 78.1901 242.383 79.2969C244.206 80.4688 245.443 81.3802 246.094 82.0312C246.875 82.7474 247.396 83.4635 247.656 84.1797C248.307 85.3516 248.372 86.556 247.852 87.793C247.331 89.0299 246.419 90.1042 245.117 91.0156C244.661 93.0339 243.75 95.1172 242.383 97.2656C241.732 98.2422 241.113 99.2188 240.527 100.195C239.941 101.107 239.388 102.018 238.867 102.93L237.305 106.836C236.523 108.659 235.71 110.482 234.863 112.305C234.017 114.128 233.073 115.885 232.031 117.578C231.185 119.336 230.534 120.475 230.078 120.996C229.688 121.517 229.329 122.038 229.004 122.559C228.743 123.014 228.255 124.154 227.539 125.977ZM329.866 9.4C328.666 14.0667 327.132 19.1333 325.266 24.6C323.399 30.0667 321.332 35.5333 319.066 41C316.932 46.3333 314.799 51.4 312.666 56.2H299.666C300.599 52.4667 301.532 48.4667 302.466 44.2C303.532 39.9333 304.466 35.6667 305.266 31.4C306.199 27 306.999 22.7333 307.666 18.6C308.466 14.4667 309.132 10.6667 309.666 7.19999H328.466L329.866 9.4ZM351.758 120.312L352.93 121.289C353.255 121.81 353.158 122.526 352.637 123.438C352.376 123.893 352.148 124.316 351.953 124.707C351.823 125.098 351.693 125.456 351.562 125.781C351.628 126.042 351.693 126.302 351.758 126.562C351.823 126.758 351.888 126.921 351.953 127.051C352.083 127.441 352.018 127.865 351.758 128.32C352.669 129.036 353.255 129.785 353.516 130.566C353.841 131.608 354.297 132.487 354.883 133.203C355.664 134.049 356.348 134.701 356.934 135.156C357.65 135.612 358.333 136.198 358.984 136.914C359.701 136.523 360.221 136.328 360.547 136.328C361.003 136.328 361.523 136.198 362.109 135.938C363.216 134.505 364.128 132.682 364.844 130.469C364.974 129.948 365.104 129.362 365.234 128.711C365.365 128.06 365.43 127.474 365.43 126.953C365.365 125.26 364.844 123.503 363.867 121.68C362.891 119.792 362.174 118.034 361.719 116.406C361.198 115.299 361.035 114.128 361.23 112.891C361.426 111.523 361.393 110.352 361.133 109.375C361.068 108.724 360.872 108.203 360.547 107.812C360.417 107.617 360.286 107.422 360.156 107.227C360.026 106.966 359.896 106.706 359.766 106.445C359.505 105.339 359.408 104.167 359.473 102.93C359.603 101.628 359.31 100.521 358.594 99.6094C357.812 100.391 356.576 101.888 354.883 104.102C353.19 106.25 351.497 108.398 349.805 110.547C348.177 112.695 347.005 114.128 346.289 114.844C345.964 115.299 345.605 115.755 345.215 116.211C344.889 116.602 344.531 116.96 344.141 117.285C343.75 117.611 343.359 118.001 342.969 118.457C342.643 118.848 342.318 119.271 341.992 119.727C339.909 122.331 338.346 124.251 337.305 125.488C336.328 126.725 335.352 127.995 334.375 129.297C333.398 130.599 331.836 132.682 329.688 135.547C328.971 136.589 327.767 138.281 326.074 140.625C324.316 142.969 322.656 145.247 321.094 147.461C319.466 149.609 318.49 151.042 318.164 151.758C317.383 153.06 316.374 154.199 315.137 155.176C313.9 156.152 312.435 156.641 310.742 156.641C310.742 156.576 310.612 156.055 310.352 155.078C310.091 154.167 309.863 153.19 309.668 152.148C309.408 151.172 309.245 150.651 309.18 150.586C309.57 149.805 309.863 149.023 310.059 148.242C310.254 147.526 310.807 146.81 311.719 146.094C311.979 145.247 312.728 143.848 313.965 141.895C315.202 139.876 316.634 137.728 318.262 135.449C319.889 133.105 321.419 130.957 322.852 129.004C324.219 127.051 325.13 125.716 325.586 125C326.432 124.154 327.669 122.689 329.297 120.605C330.859 118.522 332.422 116.439 333.984 114.355C335.612 112.207 336.784 110.677 337.5 109.766C338.086 108.008 339.29 105.827 341.113 103.223C343.001 100.553 344.987 97.8516 347.07 95.1172C349.219 92.3177 350.977 89.9089 352.344 87.8906C352.995 86.849 353.548 85.9375 354.004 85.1562C354.46 84.375 354.948 83.5286 355.469 82.6172C355.99 82.0964 356.445 81.5104 356.836 80.8594C357.096 79.8828 356.966 79.1341 356.445 78.6133C355.99 78.0924 355.794 77.4089 355.859 76.5625C357.031 74.349 358.171 72.9492 359.277 72.3633C360.449 71.7122 361.589 70.638 362.695 69.1406C363.477 68.6198 364.095 68.2292 364.551 67.9688C365.202 67.6432 365.82 67.1875 366.406 66.6016C367.318 65.6901 368.652 65.4622 370.41 65.918C372.233 66.3086 373.307 66.862 373.633 67.5781C373.698 67.9688 373.698 68.4896 373.633 69.1406C373.568 69.4661 373.503 69.7917 373.438 70.1172C373.372 70.4427 373.307 70.7682 373.242 71.0938C373.112 71.6797 372.982 72.2331 372.852 72.7539C372.721 73.2747 372.591 73.7956 372.461 74.3164C372.331 74.7721 372.201 75.293 372.07 75.8789C371.94 76.3997 371.81 76.9531 371.68 77.5391C371.419 78.9714 371.191 80.3385 370.996 81.6406C370.801 82.9427 371.224 84.1797 372.266 85.3516C372.135 86.0026 372.168 86.7839 372.363 87.6953C372.559 88.6068 372.786 89.4531 373.047 90.2344C373.307 94.401 374.056 98.5352 375.293 102.637C376.53 106.738 377.865 110.482 379.297 113.867C379.297 114.518 379.395 115.169 379.59 115.82C379.785 116.471 380.013 117.122 380.273 117.773C380.664 121.94 380.273 126.074 379.102 130.176C378.516 132.194 377.93 134.212 377.344 136.23C376.823 138.249 376.302 140.234 375.781 142.188C375 143.49 374.349 144.987 373.828 146.68C373.372 148.177 372.721 149.414 371.875 150.391C371.224 151.432 370.638 152.604 370.117 153.906C369.596 155.208 368.555 156.25 366.992 157.031C366.146 157.292 365.267 157.292 364.355 157.031C363.509 156.771 362.695 156.771 361.914 157.031C361.328 157.096 360.742 157.259 360.156 157.52C359.701 157.715 359.18 157.812 358.594 157.812C356.901 158.138 355.501 157.975 354.395 157.324C353.418 156.803 352.083 156.38 350.391 156.055C350.391 155.664 350.195 155.371 349.805 155.176C349.414 154.98 349.089 154.753 348.828 154.492C348.372 152.539 347.852 151.042 347.266 150C346.81 149.089 346.419 148.112 346.094 147.07C345.703 145.573 345.508 144.173 345.508 142.871C345.508 141.439 345.182 140.039 344.531 138.672C344.01 137.5 343.783 136.784 343.848 136.523C343.913 136.263 343.945 135.872 343.945 135.352C343.945 133.659 343.848 131.803 343.652 129.785C343.457 127.702 344.271 126.042 346.094 124.805C346.81 124.284 347.298 123.6 347.559 122.754C347.819 122.038 348.372 121.289 349.219 120.508C349.479 120.247 349.902 120.117 350.488 120.117C350.944 120.117 351.367 120.182 351.758 120.312ZM498.242 36.7188L500.195 33.5938C500.911 32.487 501.302 31.543 501.367 30.7617C501.432 29.9805 501.823 29.0365 502.539 27.9297C505.339 26.3672 507.682 24.6419 509.57 22.7539C511.589 20.7357 513.997 19.0755 516.797 17.7734C518.685 16.4714 520.15 15.5924 521.191 15.1367C522.363 14.6159 523.438 13.9974 524.414 13.2812C525 13.0208 525.586 12.7604 526.172 12.5C526.758 12.2396 527.311 11.9792 527.832 11.7188C529.069 11.1328 530.339 10.6771 531.641 10.3516C532.812 10.026 533.724 9.66797 534.375 9.27734C534.766 9.01693 535.156 8.82161 535.547 8.69141C535.938 8.49609 536.328 8.33333 536.719 8.20312C538.737 7.48698 540.56 6.90104 542.188 6.44531C543.099 6.1849 543.978 5.92448 544.824 5.66406C545.736 5.40365 546.615 5.14323 547.461 4.88281L549.805 3.90625C550.651 3.51562 551.497 3.38542 552.344 3.51562C553.711 3.77604 554.59 3.84115 554.98 3.71094C555.371 3.58073 555.664 3.51562 555.859 3.51562C556.966 3.38542 557.845 3.51562 558.496 3.90625C558.822 4.10156 559.18 4.29688 559.57 4.49219C560.026 4.6224 560.482 4.7526 560.938 4.88281C561.719 5.14323 562.467 5.33854 563.184 5.46875C563.9 5.53385 564.583 5.72917 565.234 6.05469C565.951 6.3151 566.504 6.67318 566.895 7.12891L568.164 8.39844C568.815 8.78906 569.303 9.11458 569.629 9.375L571.094 10.5469C571.615 11.6536 572.168 12.7604 572.754 13.8672C573.34 14.974 573.958 16.0807 574.609 17.1875C575.911 19.4661 576.562 22.1354 576.562 25.1953C575.781 26.3672 575.326 26.9531 575.195 26.9531C575 26.9531 574.87 27.0833 574.805 27.3438C574.089 27.7995 573.47 28.2552 572.949 28.7109C572.428 29.1016 572.005 29.4596 571.68 29.7852L569.531 32.0312L566.797 34.7656C566.536 34.9609 566.081 35.1888 565.43 35.4492C564.844 35.6445 564.518 36.0677 564.453 36.7188C563.542 37.1094 562.695 37.7604 561.914 38.6719C561.198 39.5182 560.352 40.1042 559.375 40.4297C558.333 41.7318 556.901 42.8711 555.078 43.8477C554.232 44.3034 553.418 44.7591 552.637 45.2148C551.855 45.6706 551.107 46.1589 550.391 46.6797L547.559 48.4375C547.103 48.6979 546.68 49.0234 546.289 49.4141C545.573 49.7396 544.889 50.0651 544.238 50.3906C543.587 50.7161 543.001 51.0417 542.48 51.3672C541.439 52.0182 540.169 52.6042 538.672 53.125C537.956 53.4505 537.337 53.776 536.816 54.1016C536.296 54.4922 535.547 54.6224 534.57 54.4922L532.617 53.6133C531.966 53.2878 531.38 53.5807 530.859 54.4922C529.167 54.7526 527.572 54.4596 526.074 53.6133C524.577 52.7669 523.763 51.5625 523.633 50C522.07 48.6979 521.615 46.9401 522.266 44.7266C522.526 43.75 523.014 42.7083 523.73 41.6016C524.056 41.0807 524.382 40.5924 524.707 40.1367C525.033 39.6159 525.326 39.1276 525.586 38.6719C526.172 37.6302 526.758 36.4909 527.344 35.2539C527.865 34.1471 528.451 33.0729 529.102 32.0312C530.924 30.0781 532.78 28.2552 534.668 26.5625C536.556 24.8698 538.932 23.6979 541.797 23.0469C542.708 22.7865 543.62 22.526 544.531 22.2656C545.443 22.0052 546.289 21.7448 547.07 21.4844C547.461 21.7448 547.852 21.7448 548.242 21.4844C548.633 21.1589 549.023 21.1589 549.414 21.4844C549.935 21.875 550.13 22.3307 550 22.8516C549.87 23.5026 549.805 24.0885 549.805 24.6094C548.958 25.7812 547.786 26.3672 546.289 26.3672C544.857 26.3672 544.01 27.1484 543.75 28.7109C539.974 31.9661 536.719 35.8724 533.984 40.4297C534.375 40.6901 534.896 41.0156 535.547 41.4062C536.198 41.7969 536.849 42.0573 537.5 42.1875C538.542 42.4479 539.746 42.1875 541.113 41.4062C542.48 40.625 543.555 40.0391 544.336 39.6484C547.982 37.9557 551.237 35.6771 554.102 32.8125C554.883 32.1615 555.697 31.4453 556.543 30.6641C557.389 29.8828 558.008 29.1016 558.398 28.3203C558.659 27.9948 558.887 27.6693 559.082 27.3438C559.342 27.0182 559.57 26.6927 559.766 26.3672C560.156 25.7161 560.677 25.1953 561.328 24.8047C561.523 23.2422 561.263 22.0703 560.547 21.2891C559.831 20.5078 559.017 19.7266 558.105 18.9453C557.194 18.099 556.51 16.9271 556.055 15.4297C555.404 15.1693 554.85 14.7135 554.395 14.0625C553.939 13.4115 553.385 12.9557 552.734 12.6953C552.604 12.6953 552.409 12.6953 552.148 12.6953C551.888 12.6302 551.53 12.5651 551.074 12.5L549.609 12.3047C546.354 12.9557 543.815 13.6719 541.992 14.4531C540.169 15.2344 538.346 16.0156 536.523 16.7969C532.161 19.1406 528.06 21.875 524.219 25C524.023 25.1302 523.796 25.2604 523.535 25.3906C523.34 25.5208 523.112 25.651 522.852 25.7812C522.201 26.1719 521.81 26.4323 521.68 26.5625C521.159 26.9531 520.605 27.6042 520.02 28.5156C519.759 28.9062 519.499 29.2969 519.238 29.6875C518.978 30.0781 518.685 30.4688 518.359 30.8594L516.309 33.4961C515.592 34.4076 515.104 35.3516 514.844 36.3281C514.128 36.7188 513.607 37.4674 513.281 38.5742C512.956 39.7461 512.5 40.625 511.914 41.2109C511.589 42.3177 511.263 43.2617 510.938 44.043C510.612 44.8242 510.286 45.8333 509.961 47.0703C510.547 48.2422 511.068 49.2839 511.523 50.1953C511.979 51.1068 512.337 51.888 512.598 52.5391C512.923 53.1901 513.216 53.8411 513.477 54.4922C513.802 55.1432 514.128 55.7943 514.453 56.4453C514.518 57.8125 514.941 59.082 515.723 60.2539C516.439 61.2956 517.122 62.5651 517.773 64.0625C519.661 67.1875 521.322 70.3451 522.754 73.5352C524.186 76.7253 525.846 79.8828 527.734 83.0078C528.125 83.9193 528.516 84.8307 528.906 85.7422C529.297 86.5885 529.655 87.4674 529.98 88.3789C530.697 90.2018 531.771 91.7318 533.203 92.9688C533.333 93.4245 533.464 93.8802 533.594 94.3359C533.789 94.7266 534.017 95.1497 534.277 95.6055C534.538 96.0612 534.766 96.5169 534.961 96.9727C535.156 97.3633 535.352 97.7865 535.547 98.2422C535.807 99.0234 536.1 99.8372 536.426 100.684C536.816 101.53 537.24 102.409 537.695 103.32C538.021 104.167 538.477 105.078 539.062 106.055C539.583 106.836 539.974 107.617 540.234 108.398C540.755 109.57 541.178 111.035 541.504 112.793C541.829 114.551 541.927 116.016 541.797 117.188C541.797 119.01 541.667 120.117 541.406 120.508C541.211 120.833 540.918 121.159 540.527 121.484C540.202 121.745 539.844 122.786 539.453 124.609C538.216 126.823 536.849 128.711 535.352 130.273C533.789 131.901 532.422 133.854 531.25 136.133C530.599 137.044 529.753 137.956 528.711 138.867L525.977 141.211C525.13 141.862 524.186 142.448 523.145 142.969C522.233 143.424 521.354 144.076 520.508 144.922C518.294 146.875 515.983 148.275 513.574 149.121C510.97 150.098 508.724 151.237 506.836 152.539C506.055 152.539 505.273 152.637 504.492 152.832C503.711 153.027 502.93 153.255 502.148 153.516C501.497 153.776 500.814 154.036 500.098 154.297C499.382 154.557 498.633 154.818 497.852 155.078C497.005 155.404 496.452 155.664 496.191 155.859C495.931 155.99 495.378 156.25 494.531 156.641C492.708 157.031 490.755 157.259 488.672 157.324C486.589 157.389 484.44 157.161 482.227 156.641C479.753 155.729 477.832 155.339 476.465 155.469C475.098 155.534 473.893 155.013 472.852 153.906C472.201 153.646 471.842 153.32 471.777 152.93C471.712 152.539 471.419 152.148 470.898 151.758L468.164 149.609C467.643 149.219 467.253 148.893 466.992 148.633C465.104 147.07 463.542 145.247 462.305 143.164L461.133 141.211C460.677 140.43 460.417 139.844 460.352 139.453C460.091 138.737 460.059 137.923 460.254 137.012C460.449 136.165 460.286 135.352 459.766 134.57C459.896 133.659 459.896 132.682 459.766 131.641C459.701 131.12 459.668 130.632 459.668 130.176C459.603 129.72 459.57 129.297 459.57 128.906C459.57 127.865 459.733 126.693 460.059 125.391C460.384 124.219 460.352 123.307 459.961 122.656C460.221 120.964 460.612 119.694 461.133 118.848C461.654 118.001 462.305 117.057 463.086 116.016C464.193 115.495 465.202 115.007 466.113 114.551C467.09 114.095 467.936 113.639 468.652 113.184C469.368 112.728 470.117 112.305 470.898 111.914C471.68 111.523 472.461 111.133 473.242 110.742C474.089 110.352 474.642 110.091 474.902 109.961L476.367 109.18C477.409 108.594 478.646 108.073 480.078 107.617C481.576 107.161 482.943 106.641 484.18 106.055C485.417 105.339 486.621 104.753 487.793 104.297C488.965 103.841 490.169 103.255 491.406 102.539C492.253 102.539 493.001 102.344 493.652 101.953C494.368 101.562 495.182 101.367 496.094 101.367C496.484 101.367 496.81 101.4 497.07 101.465C497.331 101.53 497.721 101.562 498.242 101.562H500.391C501.237 101.562 501.953 101.693 502.539 101.953C503.255 102.214 503.841 102.604 504.297 103.125C504.818 103.646 505.534 103.906 506.445 103.906C507.357 104.818 508.105 105.827 508.691 106.934C509.277 108.04 509.766 109.18 510.156 110.352C510.807 112.044 511.133 113.932 511.133 116.016C511.068 117.904 510.384 119.401 509.082 120.508C507.845 121.549 506.706 122.786 505.664 124.219C503.841 124.87 501.823 125.977 499.609 127.539C498.307 127.409 497.135 127.637 496.094 128.223C494.987 128.874 493.75 129.362 492.383 129.688C491.732 129.753 491.016 129.753 490.234 129.688C489.388 129.557 488.672 129.622 488.086 129.883C487.565 129.948 486.914 130.208 486.133 130.664C485.417 131.055 484.766 131.12 484.18 130.859C483.529 130.599 483.04 130.078 482.715 129.297C482.389 128.516 482.357 127.734 482.617 126.953C483.464 125.586 484.603 124.772 486.035 124.512C487.402 124.251 488.867 123.698 490.43 122.852C491.862 122.07 493.001 121.224 493.848 120.312C494.368 119.792 494.857 119.271 495.312 118.75C495.833 118.229 496.354 117.708 496.875 117.188C497.591 116.406 498.372 115.625 499.219 114.844C500.13 114.062 500.326 113.021 499.805 111.719C498.633 110.807 497.298 110.547 495.801 110.938C494.303 111.328 492.969 111.784 491.797 112.305C490.625 112.826 489.453 113.379 488.281 113.965C487.109 114.486 485.97 115.039 484.863 115.625C483.757 116.211 482.617 116.797 481.445 117.383C480.339 117.904 479.232 118.424 478.125 118.945C477.083 119.336 476.302 119.792 475.781 120.312C475.456 120.703 475.26 121.224 475.195 121.875C475.13 122.526 474.935 123.112 474.609 123.633C473.698 125.651 473.438 127.604 473.828 129.492C474.154 130.208 474.479 130.827 474.805 131.348C475.195 131.934 475.391 132.552 475.391 133.203C476.367 134.18 477.214 135.156 477.93 136.133C478.32 136.393 478.646 136.556 478.906 136.621C479.167 136.686 479.557 136.784 480.078 136.914C481.185 137.63 482.747 138.346 484.766 139.062C485.547 139.323 486.751 139.714 488.379 140.234C490.007 140.755 491.146 141.016 491.797 141.016C492.513 141.146 493.359 141.016 494.336 140.625L497.07 139.648C498.568 138.932 500.065 138.216 501.562 137.5C503.125 136.719 504.688 135.938 506.25 135.156C507.812 134.375 509.342 133.626 510.84 132.91C512.402 132.129 513.932 131.38 515.43 130.664C517.708 129.232 519.466 127.539 520.703 125.586C521.875 124.154 522.852 122.396 523.633 120.312C524.414 118.229 525 116.081 525.391 113.867C525.521 113.216 525.586 112.728 525.586 112.402V111.133C524.805 109.635 524.447 108.757 524.512 108.496C524.642 108.171 524.544 107.878 524.219 107.617C523.242 105.924 522.689 104.85 522.559 104.395C522.298 103.613 522.07 103.06 521.875 102.734C521.419 102.018 520.898 101.367 520.312 100.781C519.792 100.13 519.206 99.5443 518.555 99.0234C517.253 97.9167 516.406 96.3542 516.016 94.3359C515.169 93.6198 514.616 92.7734 514.355 91.7969C514.095 90.8203 513.411 90.1693 512.305 89.8438L511.621 88.1836C511.556 87.9232 511.458 87.6628 511.328 87.4023C511.198 87.0768 511.068 86.7188 510.938 86.3281C510.156 85.4167 509.57 84.4401 509.18 83.3984C508.268 82.6172 507.617 81.901 507.227 81.25C506.641 80.2734 506.055 79.4271 505.469 78.7109C504.557 77.7995 503.841 77.0182 503.32 76.3672C503.06 76.0417 502.799 75.7161 502.539 75.3906C502.344 75 502.181 74.6094 502.051 74.2188C501.79 73.5026 501.302 72.7865 500.586 72.0703C500.195 71.3542 499.707 70.7682 499.121 70.3125C498.6 69.8568 498.177 69.2057 497.852 68.3594C495.964 66.1458 494.596 63.151 493.75 59.375C494.01 57.8776 493.75 56.5104 492.969 55.2734C492.188 54.1016 491.992 52.6042 492.383 50.7812C493.099 48.8281 493.815 47.0052 494.531 45.3125C494.922 44.401 495.28 43.5221 495.605 42.6758C495.931 41.8294 496.224 41.0156 496.484 40.2344C497.201 39.9089 497.591 39.4206 497.656 38.7695C497.786 38.0534 497.982 37.3698 498.242 36.7188ZM615.039 42.1875C617.904 42.6432 620.378 42.9362 622.461 43.0664C624.609 43.1966 626.953 43.0339 629.492 42.5781L637.207 41.5039C639.29 41.2435 641.797 40.9505 644.727 40.625C645.508 40.5599 646.322 40.5599 647.168 40.625C647.624 40.6901 648.047 40.7552 648.438 40.8203C648.828 40.8203 649.219 40.8203 649.609 40.8203C651.302 40.8203 652.962 40.7552 654.59 40.625C656.217 40.4948 657.747 40.3646 659.18 40.2344C659.44 40.1693 659.668 40.1042 659.863 40.0391C660.124 39.974 660.352 39.9089 660.547 39.8438C660.938 39.7135 661.328 39.7135 661.719 39.8438C662.305 39.8438 662.891 39.8438 663.477 39.8438C664.062 39.8438 664.648 39.8112 665.234 39.7461C666.406 39.681 667.448 40.1042 668.359 41.0156C668.75 42.3177 668.88 43.0339 668.75 43.1641C668.555 43.3594 668.424 43.5547 668.359 43.75C668.229 45.4427 668.001 46.2891 667.676 46.2891C667.35 46.2891 667.188 46.4193 667.188 46.6797C666.146 46.9401 665.267 47.168 664.551 47.3633C663.835 47.5586 663.281 47.9818 662.891 48.6328C660.677 49.0885 658.626 49.1862 656.738 48.9258C654.85 48.6003 652.93 48.8932 650.977 49.8047C650 50.2604 649.056 50.7487 648.145 51.2695C647.233 51.8555 646.029 51.888 644.531 51.3672C643.229 51.3672 641.732 51.4323 640.039 51.5625C638.346 51.6927 636.719 51.8229 635.156 51.9531C632.943 52.1484 630.436 52.3763 627.637 52.6367C624.902 52.832 622.786 52.9622 621.289 53.0273C619.857 53.0924 617.806 53.1901 615.137 53.3203C612.467 53.4505 610.091 53.5156 608.008 53.5156C606.966 54.362 606.283 55.4688 605.957 56.8359C605.632 58.138 604.948 59.1797 603.906 59.9609C602.734 62.5651 601.888 64.2253 601.367 64.9414C600.781 65.7227 600.326 66.7318 600 67.9688C598.177 70.3125 596.517 72.7539 595.02 75.293C593.652 77.6367 591.927 80.013 589.844 82.4219C589.583 83.8542 589.095 85.1237 588.379 86.2305C587.728 87.2721 587.24 88.737 586.914 90.625C585.547 92.4479 584.505 94.5964 583.789 97.0703C583.464 98.2422 583.073 99.4466 582.617 100.684C582.227 101.921 581.771 103.19 581.25 104.492C580.99 105.534 580.697 106.543 580.371 107.52C580.046 108.496 579.688 109.505 579.297 110.547C578.841 111.719 578.223 112.923 577.441 114.16C577.116 114.681 576.758 115.267 576.367 115.918C576.042 116.504 575.716 117.122 575.391 117.773C575.13 118.034 575 118.392 575 118.848C575 119.173 574.935 119.531 574.805 119.922C574.609 120.378 574.414 120.833 574.219 121.289C574.023 121.68 573.828 122.038 573.633 122.363C573.372 122.819 573.047 123.503 572.656 124.414C572.461 124.87 572.298 125.553 572.168 126.465C572.038 127.376 571.875 128.06 571.68 128.516C571.615 128.711 571.549 128.906 571.484 129.102C571.419 129.297 571.354 129.46 571.289 129.59C571.224 129.72 571.159 129.883 571.094 130.078C571.029 130.273 570.964 130.469 570.898 130.664C570.508 132.487 570.508 133.724 570.898 134.375C571.289 135.026 571.615 135.677 571.875 136.328C572.005 136.719 572.135 137.077 572.266 137.402C572.396 137.728 572.526 138.053 572.656 138.379C572.982 138.965 573.177 139.583 573.242 140.234C573.568 140.365 573.893 140.495 574.219 140.625C574.544 140.755 574.837 140.885 575.098 141.016C575.618 141.276 576.237 141.406 576.953 141.406C577.799 141.536 578.646 141.178 579.492 140.332C580.404 139.421 581.185 138.932 581.836 138.867C582.617 138.607 583.496 138.477 584.473 138.477C585.319 138.477 586.068 138.281 586.719 137.891C587.109 137.565 587.467 137.24 587.793 136.914C588.118 136.589 588.411 136.263 588.672 135.938C589.062 135.352 589.779 134.896 590.82 134.57C592.904 134.049 594.01 133.626 594.141 133.301C594.206 133.04 594.661 132.552 595.508 131.836C595.964 131.51 596.387 131.185 596.777 130.859C597.233 130.534 597.624 130.241 597.949 129.98C598.47 129.525 599.349 128.906 600.586 128.125C601.888 127.474 602.637 127.083 602.832 126.953C603.027 126.823 603.581 126.367 604.492 125.586C605.143 125.26 605.729 124.935 606.25 124.609C606.836 124.219 607.357 123.828 607.812 123.438C608.529 122.786 609.57 122.07 610.938 121.289C612.5 120.638 613.346 120.247 613.477 120.117C613.672 119.922 613.802 119.694 613.867 119.434C613.932 119.173 614.648 118.62 616.016 117.773C616.471 116.797 617.057 115.951 617.773 115.234C618.099 114.909 618.457 114.551 618.848 114.16C619.238 113.704 619.661 113.216 620.117 112.695C620.964 111.719 621.777 110.938 622.559 110.352C623.47 109.635 624.219 108.984 624.805 108.398C625.065 108.203 625.391 107.91 625.781 107.52C626.172 107.129 626.628 106.901 627.148 106.836C627.539 106.51 627.865 106.217 628.125 105.957C628.451 105.697 628.743 105.436 629.004 105.176C629.264 104.915 629.557 104.622 629.883 104.297C630.273 103.971 630.729 103.581 631.25 103.125L632.227 102.148C632.682 101.693 633.008 101.432 633.203 101.367C633.789 101.367 634.212 101.562 634.473 101.953C634.798 102.344 635.221 102.539 635.742 102.539C635.677 103.385 635.612 104.069 635.547 104.59C635.547 105.111 635.547 105.501 635.547 105.762C635.547 106.283 635.417 106.771 635.156 107.227C634.375 108.464 633.496 109.115 632.52 109.18C631.543 109.31 630.794 110.026 630.273 111.328C629.883 111.068 629.395 111.003 628.809 111.133C628.223 111.263 627.799 111.458 627.539 111.719C627.799 112.174 627.93 112.63 627.93 113.086C627.93 113.346 627.995 113.802 628.125 114.453C625.716 116.862 624.154 118.75 623.438 120.117C621.81 121.81 620.964 122.754 620.898 122.949L620.703 123.242L619.141 124.805C617.318 126.237 615.951 127.604 615.039 128.906C614.193 130.143 612.826 131.315 610.938 132.422C609.505 133.464 608.529 134.245 608.008 134.766C607.747 135.026 607.422 135.352 607.031 135.742C606.641 136.068 606.185 136.458 605.664 136.914C605.339 137.24 604.85 137.793 604.199 138.574C603.548 139.355 602.995 139.909 602.539 140.234C601.693 140.885 600.814 141.471 599.902 141.992C599.186 142.383 598.438 143.034 597.656 143.945C595.768 144.792 594.368 145.833 593.457 147.07C592.611 148.177 591.341 149.284 589.648 150.391C588.477 151.172 586.882 152.148 584.863 153.32C582.845 154.492 581.12 155.339 579.688 155.859C579.492 155.924 579.297 155.99 579.102 156.055C578.906 156.12 578.743 156.185 578.613 156.25C578.483 156.315 578.32 156.38 578.125 156.445C577.93 156.51 577.734 156.576 577.539 156.641C576.497 155.99 575.488 155.339 574.512 154.688C573.535 154.036 572.721 153.125 572.07 151.953C570.833 151.042 569.889 150.391 569.238 150C568.457 149.544 567.773 149.023 567.188 148.438C566.536 147.331 565.853 146.224 565.137 145.117C564.421 144.01 563.639 142.904 562.793 141.797C561.1 139.518 559.831 137.044 558.984 134.375C558.789 134.049 558.626 133.496 558.496 132.715L558.203 130.859C558.073 130.339 557.943 129.85 557.812 129.395C557.682 128.939 557.552 128.516 557.422 128.125C557.161 127.474 557.096 126.497 557.227 125.195C557.227 124.284 557.357 123.438 557.617 122.656C557.747 122.201 557.878 121.745 558.008 121.289C558.138 120.768 558.268 120.247 558.398 119.727C558.659 118.88 558.952 118.066 559.277 117.285C559.603 116.439 559.928 115.625 560.254 114.844C561.035 113.086 561.589 111.393 561.914 109.766C562.695 107.031 563.542 104.427 564.453 101.953C564.648 101.497 564.811 100.879 564.941 100.098C565.007 99.5117 565.365 99.0885 566.016 98.8281C566.536 96.224 567.383 93.7174 568.555 91.3086C569.727 88.8997 570.898 86.5885 572.07 84.375C572.786 83.0078 573.47 81.6406 574.121 80.2734C574.772 78.8411 575.423 77.4089 576.074 75.9766C576.725 74.5443 577.376 73.1445 578.027 71.7773C578.678 70.3451 579.362 68.9453 580.078 67.5781C580.143 66.1458 580.664 64.8438 581.641 63.6719C581.706 62.3698 582.227 60.9701 583.203 59.4727C584.18 57.9753 584.831 56.5755 585.156 55.2734C583.724 54.8828 582.129 54.8503 580.371 55.1758C578.613 55.5013 577.083 55.7943 575.781 56.0547C573.438 56.1198 570.964 56.1198 568.359 56.0547C567.904 55.9896 567.448 55.9245 566.992 55.8594C566.602 55.7292 566.178 55.6315 565.723 55.5664C564.876 55.3711 564.062 55.2734 563.281 55.2734C562.109 55.3385 561.23 55.2409 560.645 54.9805C559.993 54.6549 559.375 54.6224 558.789 54.8828C556.966 53.3203 555.111 51.9531 553.223 50.7812C551.27 49.6094 550 48.112 549.414 46.2891C549.414 45.8984 549.609 45.5729 550 45.3125C550.521 44.9219 550.846 44.6615 550.977 44.5312C552.083 44.2057 553.255 44.1081 554.492 44.2383C555.729 44.3034 556.771 44.0755 557.617 43.5547C559.505 43.8151 561.426 43.6849 563.379 43.1641C565.137 42.6432 566.992 42.4479 568.945 42.5781C569.206 42.5781 569.596 42.6432 570.117 42.7734C570.638 42.9036 571.029 42.9688 571.289 42.9688C571.94 43.0339 572.493 43.0339 572.949 42.9688C573.21 42.9036 573.47 42.8385 573.73 42.7734C573.991 42.7083 574.284 42.6432 574.609 42.5781C575.391 42.4479 576.237 42.4479 577.148 42.5781C578.06 42.7083 578.971 42.7083 579.883 42.5781C581.771 42.4479 583.822 42.6107 586.035 43.0664C588.444 43.5221 590.56 43.4245 592.383 42.7734C592.708 41.862 593.034 40.9505 593.359 40.0391C593.75 39.0625 594.173 38.1185 594.629 37.207C595.54 35.319 596.224 33.4635 596.68 31.6406C597.201 30.8594 597.721 29.9805 598.242 29.0039C598.763 28.0273 599.154 27.0833 599.414 26.1719L601.27 23.0469C601.53 22.6562 601.79 22.2656 602.051 21.875C602.311 21.4844 602.604 21.0938 602.93 20.7031C603.841 18.8151 604.525 17.0247 604.98 15.332C605.241 14.4206 605.501 13.5091 605.762 12.5977C606.087 11.6211 606.445 10.612 606.836 9.57031C607.682 8.65885 608.529 7.64974 609.375 6.54297C610.221 5.4362 611.068 4.23177 611.914 2.92969C612.891 3.0599 613.639 2.79948 614.16 2.14844C614.746 1.4974 615.625 1.5625 616.797 2.34375C616.797 2.73438 616.96 3.09245 617.285 3.41797C617.611 3.74349 617.643 4.23177 617.383 4.88281C618.685 6.1849 619.531 7.35677 619.922 8.39844C620.182 9.4401 620.085 10.6445 619.629 12.0117C619.173 13.3789 619.271 14.6484 619.922 15.8203C620.182 16.4062 620.247 17.0247 620.117 17.6758C619.987 18.3919 620.052 18.9453 620.312 19.3359C620.638 20.0521 620.996 20.7031 621.387 21.2891C621.842 21.9401 622.07 22.7865 622.07 23.8281C622.07 24.2188 621.973 24.707 621.777 25.293C621.582 25.8789 621.354 26.4974 621.094 27.1484C620.638 29.1016 620.247 30.4688 619.922 31.25C619.792 31.6406 619.661 32.0638 619.531 32.5195C619.401 32.9102 619.271 33.3333 619.141 33.7891C618.229 34.8958 617.773 35.5794 617.773 35.8398C617.773 36.0352 617.708 36.3281 617.578 36.7188C617.383 37.1094 617.188 37.5651 616.992 38.0859C616.797 38.5417 616.569 39.0299 616.309 39.5508C616.048 40.0716 615.82 40.5599 615.625 41.0156C615.43 41.4714 615.234 41.862 615.039 42.1875ZM663.867 148.633L662.695 144.336C661.914 142.708 661.784 140.169 662.305 136.719L662.988 133.301C663.118 132.845 663.216 132.259 663.281 131.543C663.411 130.827 663.542 129.948 663.672 128.906C663.802 127.93 663.932 126.953 664.062 125.977C664.258 124.935 664.486 123.893 664.746 122.852C665.007 121.81 665.202 120.768 665.332 119.727C665.527 118.685 665.69 117.643 665.82 116.602C664.844 118.099 663.9 119.629 662.988 121.191C662.077 122.754 661.198 124.382 660.352 126.074C658.724 129.264 656.706 132.031 654.297 134.375C653.776 135.938 653.125 136.947 652.344 137.402C651.562 137.793 650.781 138.184 650 138.574C649.219 138.965 648.568 139.909 648.047 141.406C647.396 142.057 646.777 142.741 646.191 143.457C645.605 144.173 645.182 145.052 644.922 146.094C644.271 146.354 643.62 146.875 642.969 147.656C641.732 148.893 640.951 149.544 640.625 149.609C640.299 149.674 639.974 149.87 639.648 150.195C638.346 151.237 637.207 152.018 636.23 152.539C635.254 153.06 634.115 153.385 632.812 153.516C631.38 153.776 629.525 153.971 627.246 154.102C626.139 154.167 625.13 154.232 624.219 154.297C623.307 154.362 622.526 154.427 621.875 154.492C621.029 153.841 620.378 153.451 619.922 153.32C619.727 153.255 619.434 153.158 619.043 153.027C618.717 152.897 618.294 152.734 617.773 152.539C615.885 151.758 614.974 151.4 615.039 151.465C614.974 151.4 614.876 151.335 614.746 151.27C614.551 151.204 614.323 151.107 614.062 150.977C613.021 150.195 612.305 149.577 611.914 149.121C611.654 148.796 611.198 148.307 610.547 147.656C608.398 144.336 607.161 140.039 606.836 134.766C606.706 132.943 607.031 131.12 607.812 129.297C608.594 127.474 609.31 125.846 609.961 124.414C610.742 122.786 611.589 121.289 612.5 119.922C613.021 119.141 613.509 118.392 613.965 117.676C614.355 116.96 614.714 116.276 615.039 115.625C615.82 114.062 615.951 113.053 615.43 112.598C614.974 112.077 615.104 111.068 615.82 109.57C616.146 108.529 616.536 107.617 616.992 106.836L618.75 103.711C619.922 101.628 621.159 99.7721 622.461 98.1445C623.633 96.7122 624.609 94.7917 625.391 92.3828C626.042 90.5599 626.921 89.1602 628.027 88.1836C629.134 87.207 630.469 86.3281 632.031 85.5469C632.682 85.8073 633.626 85.7096 634.863 85.2539C636.1 84.7982 637.044 84.3099 637.695 83.7891C638.607 83.7891 639.323 83.5286 639.844 83.0078C641.276 82.7474 642.025 82.7474 642.09 83.0078C642.155 83.2682 642.318 83.3984 642.578 83.3984C642.839 83.4635 643.197 83.4635 643.652 83.3984C644.108 83.3333 644.466 83.3333 644.727 83.3984C645.182 84.7656 645.508 85.612 645.703 85.9375C645.964 86.263 646.094 86.5885 646.094 86.9141C646.094 87.3047 646.061 87.8255 645.996 88.4766C645.931 89.1276 645.833 89.5833 645.703 89.8438C644.987 90.8203 644.564 91.4388 644.434 91.6992L644.141 92.3828C643.75 92.9036 643.294 93.5221 642.773 94.2383C642.318 94.8893 641.797 95.6706 641.211 96.582L638.086 101.172C637.37 102.279 636.719 102.995 636.133 103.32C635.417 103.711 634.831 104.427 634.375 105.469C634.115 105.924 633.919 106.413 633.789 106.934C633.724 107.389 633.529 107.878 633.203 108.398C631.706 111.523 630.013 114.681 628.125 117.871C627.148 119.499 626.204 121.126 625.293 122.754C624.447 124.316 623.633 125.846 622.852 127.344C622.786 127.865 622.689 128.385 622.559 128.906C622.428 129.362 622.298 129.85 622.168 130.371C621.842 131.478 621.68 132.422 621.68 133.203C621.68 133.398 621.615 134.408 621.484 136.23C621.354 138.053 621.419 139.128 621.68 139.453C622.461 140.56 622.917 141.048 623.047 140.918C623.177 140.788 623.307 140.82 623.438 141.016C623.958 142.318 624.316 143.066 624.512 143.262C624.707 143.457 625.13 143.685 625.781 143.945C626.302 144.076 627.051 143.978 628.027 143.652C629.004 143.327 629.753 143.034 630.273 142.773C631.836 141.992 633.008 141.178 633.789 140.332C634.57 139.486 635.352 138.607 636.133 137.695C638.086 135.352 640.169 132.617 642.383 129.492C644.596 126.367 646.68 123.633 648.633 121.289C649.349 119.727 650.293 118.164 651.465 116.602C652.702 114.909 653.646 113.411 654.297 112.109L657.031 106.836C657.422 106.12 657.845 105.339 658.301 104.492C658.757 103.646 659.245 102.734 659.766 101.758C660.547 100.651 661.361 99.6419 662.207 98.7305C663.053 97.819 663.672 96.4844 664.062 94.7266C664.388 93.8151 664.876 92.9362 665.527 92.0898C665.853 91.6341 666.146 91.2435 666.406 90.918C666.732 90.5273 666.992 90.1693 667.188 89.8438C668.164 88.9323 668.783 88.2161 669.043 87.6953C669.303 87.1745 669.727 86.7188 670.312 86.3281C671.745 85.9375 672.852 85.6445 673.633 85.4492C674.414 85.2539 675.391 85.2865 676.562 85.5469C677.604 84.8958 678.711 84.5703 679.883 84.5703C680.469 84.5703 681.022 84.6029 681.543 84.668C682.129 84.668 682.682 84.7005 683.203 84.7656C683.203 85.4167 683.366 85.8398 683.691 86.0352C684.017 86.2305 684.18 86.5885 684.18 87.1094C684.701 88.2812 684.701 89.7135 684.18 91.4062C683.594 93.2943 683.268 94.987 683.203 96.4844C682.878 97.8516 682.389 99.056 681.738 100.098C681.022 101.27 680.469 102.539 680.078 103.906C679.818 104.883 679.59 105.664 679.395 106.25C679.264 106.836 679.167 107.227 679.102 107.422L678.516 109.57C678.255 110.742 677.995 111.882 677.734 112.988C677.474 114.03 677.214 115.072 676.953 116.113C676.432 118.197 676.042 120.508 675.781 123.047C675.781 123.698 675.684 124.382 675.488 125.098C675.293 125.749 675.195 126.367 675.195 126.953C675.195 127.604 675.228 128.385 675.293 129.297C675.358 130.208 675.716 130.794 676.367 131.055C677.083 131.315 677.702 131.25 678.223 130.859C678.874 130.339 679.557 129.883 680.273 129.492C680.729 129.167 681.38 128.581 682.227 127.734C683.073 126.888 683.724 126.302 684.18 125.977C684.831 125.326 685.547 124.805 686.328 124.414C687.109 124.023 687.826 123.503 688.477 122.852C689.518 121.94 690.527 121.029 691.504 120.117C692.546 119.141 693.522 118.164 694.434 117.188C696.387 115.169 698.438 113.542 700.586 112.305C702.669 110.091 704.785 108.04 706.934 106.152C709.082 104.264 711.523 102.669 714.258 101.367C715.299 103.06 715.56 104.46 715.039 105.566C714.518 106.673 713.867 107.747 713.086 108.789C712.76 109.115 712.305 109.44 711.719 109.766C711.003 110.156 710.482 110.482 710.156 110.742L709.18 111.719C708.789 112.109 708.464 112.305 708.203 112.305C708.203 112.826 708.04 113.249 707.715 113.574L706.836 114.453C705.99 115.755 705.078 116.992 704.102 118.164C703.19 119.271 702.214 120.345 701.172 121.387C700.13 122.428 699.089 123.47 698.047 124.512C697.07 125.488 696.094 126.497 695.117 127.539C694.206 127.865 693.652 128.288 693.457 128.809C693.262 129.46 692.839 130.013 692.188 130.469C691.927 130.794 691.667 131.087 691.406 131.348C691.146 131.608 690.885 131.868 690.625 132.129C690.365 132.389 690.104 132.65 689.844 132.91C689.583 133.171 689.323 133.464 689.062 133.789C688.281 134.635 687.598 135.514 687.012 136.426C686.426 137.272 685.612 138.086 684.57 138.867C683.919 139.518 683.431 140.202 683.105 140.918C682.845 141.569 682.357 142.253 681.641 142.969C680.599 144.01 679.85 144.499 679.395 144.434C679.004 144.368 678.646 144.987 678.32 146.289C677.279 147.07 676.693 147.624 676.562 147.949C676.497 148.21 676.302 148.307 675.977 148.242C675.651 148.372 675.195 148.47 674.609 148.535C673.958 148.6 673.633 148.763 673.633 149.023C672.786 149.414 672.103 149.805 671.582 150.195C671.061 150.651 670.443 150.911 669.727 150.977C668.034 151.237 666.829 151.139 666.113 150.684C665.397 150.228 664.648 149.544 663.867 148.633ZM768.555 133.203C769.466 133.203 770.117 133.268 770.508 133.398C770.898 133.529 771.224 133.594 771.484 133.594C772.786 133.594 774.447 132.682 776.465 130.859C778.548 128.971 780.208 127.539 781.445 126.562C784.115 125.977 786.263 124.284 787.891 121.484C789.583 118.62 791.471 116.146 793.555 114.062C796.224 111.393 798.372 109.017 800 106.934C801.693 104.785 803.125 103.711 804.297 103.711C805.339 103.711 806.087 104.199 806.543 105.176C807.129 106.348 807.552 107.161 807.812 107.617C807.552 107.878 807.422 108.268 807.422 108.789C807.422 109.375 807.292 109.831 807.031 110.156C806.771 110.547 806.38 110.938 805.859 111.328C805.339 111.719 804.883 112.174 804.492 112.695L802.539 115.039C800.846 116.732 799.251 118.88 797.754 121.484C796.257 124.089 794.759 126.562 793.262 128.906C791.829 131.185 790.299 132.812 788.672 133.789C785.221 136.003 782.454 138.346 780.371 140.82C778.353 143.229 776.107 145.182 773.633 146.68C773.372 146.68 773.21 146.647 773.145 146.582C773.079 146.517 772.982 146.484 772.852 146.484C772.266 146.484 771.842 146.615 771.582 146.875C771.322 147.135 770.964 147.266 770.508 147.266C768.099 146.354 766.178 145.345 764.746 144.238C763.314 143.066 761.458 140.56 759.18 136.719C758.594 135.742 758.073 134.668 757.617 133.496C757.161 132.194 756.641 131.055 756.055 130.078L753.418 125.293C752.702 123.991 752.344 121.81 752.344 118.75C752.344 117.448 752.474 115.495 752.734 112.891C752.995 110.286 753.255 108.203 753.516 106.641C751.497 108.659 749.642 111.165 747.949 114.16C747.103 115.592 746.289 116.992 745.508 118.359C744.727 119.727 743.945 121.029 743.164 122.266C741.081 125.456 738.835 128.613 736.426 131.738C734.082 134.733 732.878 137.044 732.812 138.672C732.031 139.453 731.185 140.592 730.273 142.09C729.362 143.587 728.646 144.889 728.125 145.996C727.669 147.038 727.669 147.331 728.125 146.875C726.302 149.87 723.665 151.986 720.215 153.223C716.764 154.46 713.542 155.078 710.547 155.078C709.961 155.013 709.375 154.948 708.789 154.883C708.203 154.818 707.617 154.753 707.031 154.688C705.924 154.622 704.818 154.167 703.711 153.32L700.781 151.172C698.698 150.13 697.266 148.503 696.484 146.289C695.703 144.076 695.312 141.667 695.312 139.062C696.94 134.961 697.884 131.283 698.145 128.027C698.405 124.837 699.154 121.68 700.391 118.555C702.214 113.737 704.785 109.44 708.105 105.664C711.426 101.888 714.909 98.4375 718.555 95.3125C721.484 92.8385 724.837 90.1367 728.613 87.207C732.454 84.2122 735.221 81.7057 736.914 79.6875C738.997 79.362 740.755 78.7435 742.188 77.832C743.685 76.8555 745.182 75.944 746.68 75.0977C748.177 74.2513 749.935 73.8281 751.953 73.8281C754.948 73.8281 756.706 74.349 757.227 75.3906C757.747 76.4323 758.529 77.8646 759.57 79.6875C760.417 77.5391 761.068 75.3581 761.523 73.1445C761.784 72.0378 762.077 70.9635 762.402 69.9219C762.793 68.8802 763.216 67.9036 763.672 66.9922C764.453 62.9557 765.788 58.6589 767.676 54.1016C769.564 49.5443 771.452 45.3451 773.34 41.5039C774.902 38.3789 776.432 35.4167 777.93 32.6172C779.492 29.7526 780.534 27.9297 781.055 27.1484C783.073 24.0234 785.254 21.3867 787.598 19.2383C789.876 17.0898 791.862 14.7786 793.555 12.3047C794.857 10.7422 796.126 8.95182 797.363 6.93359C798.665 4.72005 799.674 3.38542 800.391 2.92969C804.036 3.90625 805.957 5.33854 806.152 7.22656C806.348 9.11458 806.445 11.263 806.445 13.6719C806.445 15.7552 806.25 17.8385 805.859 19.9219L799.219 33.7891C797.396 37.1745 795.671 40.625 794.043 44.1406C792.415 47.6562 790.885 51.237 789.453 54.8828C787.044 59.5703 784.408 63.6719 781.543 67.1875C780.111 68.9453 778.743 70.7682 777.441 72.6562C776.204 74.5443 775 76.4974 773.828 78.5156C773.372 79.8828 772.689 81.2174 771.777 82.5195C771.322 83.1706 770.898 83.8216 770.508 84.4727C770.117 85.0586 769.727 85.6771 769.336 86.3281L765.82 94.7266C765.039 95.7682 764.648 96.7448 764.648 97.6562C764.909 98.2422 765.039 98.763 765.039 99.2188V100.195C765.039 100.781 765.039 101.367 765.039 101.953C765.039 102.539 765.007 103.125 764.941 103.711C764.876 104.297 764.844 104.915 764.844 105.566C764.844 106.152 764.844 106.771 764.844 107.422C764.844 114.062 765.104 120.573 765.625 126.953C765.365 127.409 765.234 127.734 765.234 127.93C765.234 128.841 765.723 129.785 766.699 130.762C767.676 131.673 768.294 132.487 768.555 133.203ZM749.805 85.7422L744.922 88.8672C743.945 89.1927 742.643 90.1367 741.016 91.6992L736.914 95.5078L732.812 99.2188C731.901 100.911 730.664 102.344 729.102 103.516C727.539 104.688 726.237 105.99 725.195 107.422C723.763 109.245 722.363 111.393 720.996 113.867C719.629 116.341 719.01 118.424 719.141 120.117C718.815 121.289 718.457 122.396 718.066 123.438C717.741 124.414 717.383 125.326 716.992 126.172C716.211 127.799 715.82 129.688 715.82 131.836C715.82 133.529 716.374 134.408 717.48 134.473C718.587 134.538 719.401 134.57 719.922 134.57C721.875 133.268 723.926 131.38 726.074 128.906C728.288 126.367 730.273 123.763 732.031 121.094C733.854 118.424 735.091 116.211 735.742 114.453C737.174 111.979 738.802 109.342 740.625 106.543C742.448 103.743 744.466 101.237 746.68 99.0234L751.758 90.8203C751.888 90.4948 752.018 90.2018 752.148 89.9414C752.279 89.6159 752.409 89.3229 752.539 89.0625C752.799 88.6068 752.93 88.0208 752.93 87.3047C752.93 86.4583 752.669 85.6771 752.148 84.9609C751.628 84.9609 751.172 85.0586 750.781 85.2539C750.391 85.4492 750.065 85.612 749.805 85.7422ZM831.836 52.1484L833.789 52.7344C834.049 53.0599 834.18 53.4505 834.18 53.9062C834.18 54.2318 834.375 54.5573 834.766 54.8828C834.505 56.0547 834.277 57.2591 834.082 58.4961C833.887 59.7331 833.789 60.9375 833.789 62.1094C833.789 62.5651 833.952 63.0208 834.277 63.4766C834.603 63.9323 834.766 64.3229 834.766 64.6484C834.115 66.1458 833.626 67.0573 833.301 67.3828C832.975 67.7083 832.812 68.0339 832.812 68.3594C832.161 68.6198 831.673 69.0104 831.348 69.5312C831.022 70.0521 830.469 70.3125 829.688 70.3125C829.427 70.7031 829.134 70.9961 828.809 71.1914C828.418 71.4518 828.19 71.8099 828.125 72.2656C825.977 73.1771 823.633 73.112 821.094 72.0703C820.378 70.8333 819.466 69.987 818.359 69.5312C816.667 67.0573 816.602 64.1276 818.164 60.7422C818.424 60.0911 818.717 59.4076 819.043 58.6914C819.368 57.9753 819.661 57.487 819.922 57.2266C821.289 56.25 822.331 55.599 823.047 55.2734C823.307 55.1432 823.568 55.013 823.828 54.8828C824.154 54.6875 824.447 54.4922 824.707 54.2969C825.163 53.9714 825.846 53.6458 826.758 53.3203C827.148 53.1901 827.507 53.125 827.832 53.125C828.353 53.125 828.841 52.9948 829.297 52.7344C829.557 52.6693 829.785 52.6042 829.98 52.5391C830.241 52.474 830.469 52.4089 830.664 52.3438C831.185 52.2135 831.576 52.1484 831.836 52.1484ZM802.539 138.672L803.516 139.062C804.688 138.542 806.12 138.346 807.812 138.477C809.57 138.607 810.938 138.346 811.914 137.695C812.565 137.174 813.021 136.784 813.281 136.523C813.672 136.133 814.128 136.003 814.648 136.133C816.732 135.352 818.49 134.57 819.922 133.789C821.419 133.008 822.982 132.422 824.609 132.031C825.651 131.641 826.562 131.055 827.344 130.273C830.013 129.427 832.259 128.223 834.082 126.66C835.97 125.098 838.021 123.438 840.234 121.68C842.057 120.638 843.587 119.727 844.824 118.945C846.061 118.164 847.396 117.188 848.828 116.016C849.154 115.299 849.512 114.811 849.902 114.551C850.228 114.355 850.586 113.932 850.977 113.281C853.32 113.281 854.622 114.193 854.883 116.016C854.232 117.448 853.353 118.62 852.246 119.531C851.074 120.508 850.065 121.549 849.219 122.656C848.177 123.307 847.331 123.893 846.68 124.414C846.029 124.935 845.378 125.716 844.727 126.758C844.661 126.758 844.271 127.051 843.555 127.637C842.904 128.223 842.513 128.516 842.383 128.516C841.341 129.753 840.56 130.501 840.039 130.762C839.518 131.022 838.607 131.706 837.305 132.812C836.458 134.245 835.286 135.417 833.789 136.328C830.99 138.997 828.027 141.243 824.902 143.066C823.275 143.978 821.745 144.922 820.312 145.898C818.88 146.81 817.513 147.721 816.211 148.633C815.56 149.023 815.104 149.382 814.844 149.707C814.583 150.033 814.128 150.456 813.477 150.977C812.826 151.497 811.816 152.018 810.449 152.539C809.082 153.06 807.878 153.516 806.836 153.906C805.99 154.427 805.273 154.818 804.688 155.078C801.758 155.208 799.544 154.753 798.047 153.711C796.354 152.799 795.052 152.083 794.141 151.562C793.229 151.042 792.448 150.195 791.797 149.023C790.299 148.307 789.421 147.103 789.16 145.41C789.03 144.499 788.867 143.62 788.672 142.773C788.477 141.927 788.281 141.081 788.086 140.234C787.956 139.583 787.826 138.835 787.695 137.988C787.565 137.142 787.565 136.263 787.695 135.352C788.021 133.854 788.216 132.324 788.281 130.762C788.346 129.329 788.672 127.93 789.258 126.562C789.844 125.26 790.202 123.828 790.332 122.266C790.462 120.703 790.82 119.271 791.406 117.969C792.253 116.667 792.611 115.951 792.48 115.82C792.415 115.755 792.448 115.56 792.578 115.234L793.457 114.062C793.652 113.802 793.945 113.346 794.336 112.695L795.508 109.766C796.094 108.659 796.68 107.747 797.266 107.031C797.852 106.25 798.372 105.143 798.828 103.711C799.154 102.799 799.512 102.083 799.902 101.562C800.163 101.237 800.391 100.911 800.586 100.586C800.846 100.195 801.107 99.8047 801.367 99.4141C801.693 98.763 802.018 97.9492 802.344 96.9727C802.474 96.5169 802.604 96.0938 802.734 95.7031C802.93 95.2474 803.125 94.7917 803.32 94.3359C803.711 93.2943 804.199 92.2526 804.785 91.2109C805.371 90.1693 805.99 89.1276 806.641 88.0859C807.161 87.0443 807.617 86.263 808.008 85.7422C808.398 85.2214 809.18 84.8958 810.352 84.7656C810.938 84.6354 811.523 84.668 812.109 84.8633C812.826 85.0586 813.477 85.026 814.062 84.7656C815.755 83.9844 816.927 83.5938 817.578 83.5938C818.229 83.5938 818.685 83.3984 818.945 83.0078C820.312 83.0729 821.354 83.5286 822.07 84.375C822.786 85.1562 823.568 85.9375 824.414 86.7188C823.633 90.4948 822.754 93.3919 821.777 95.4102C820.801 97.4284 819.727 99.5443 818.555 101.758C817.904 102.799 817.253 103.971 816.602 105.273C815.951 106.576 815.365 107.747 814.844 108.789C814.193 110.221 813.509 111.491 812.793 112.598C811.947 113.9 811.328 115.169 810.938 116.406L810.059 118.262C809.668 119.043 809.375 119.661 809.18 120.117C809.049 120.573 808.887 121.029 808.691 121.484C808.561 121.875 808.366 122.233 808.105 122.559C807.845 122.884 807.617 123.242 807.422 123.633C807.227 123.958 807.031 124.284 806.836 124.609C806.445 125.391 806.055 126.172 805.664 126.953C805.273 127.734 804.948 128.581 804.688 129.492C804.036 130.924 803.646 131.868 803.516 132.324C803.451 132.454 803.385 132.617 803.32 132.812C803.255 132.943 803.19 133.073 803.125 133.203C802.865 134.635 802.474 135.807 801.953 136.719C801.432 137.63 801.628 138.281 802.539 138.672ZM937.891 93.5547C938.542 93.6198 938.965 93.8802 939.16 94.3359C939.355 94.7266 939.714 94.9219 940.234 94.9219C940.495 96.1589 940.234 97.0378 939.453 97.5586C938.672 98.0143 938.411 98.763 938.672 99.8047C937.5 100.586 936.068 101.074 934.375 101.27C932.617 101.465 931.315 102.148 930.469 103.32C928.19 104.427 925.814 105.111 923.34 105.371C922.103 105.501 920.801 105.697 919.434 105.957C918.132 106.152 916.797 106.38 915.43 106.641C913.997 107.617 913.118 108.138 912.793 108.203C912.337 108.268 911.849 108.464 911.328 108.789C909.961 108.268 908.594 108.008 907.227 108.008C905.859 108.008 904.427 107.812 902.93 107.422C902.214 107.682 901.465 107.812 900.684 107.812C899.902 107.812 899.154 107.943 898.438 108.203C897.917 109.375 897.656 110.547 897.656 111.719C897.656 112.956 897.461 114.128 897.07 115.234L895.898 117.578L895.605 119.434C895.475 120.215 895.312 120.833 895.117 121.289C894.857 121.68 894.564 122.135 894.238 122.656C893.913 123.177 893.75 123.763 893.75 124.414C892.839 125.586 892.188 126.79 891.797 128.027C891.406 129.46 890.69 130.599 889.648 131.445C889.258 132.812 888.639 133.854 887.793 134.57C886.947 135.352 886.133 136.263 885.352 137.305C883.919 139.258 882.65 140.951 881.543 142.383C880.436 143.815 878.971 145.052 877.148 146.094C876.497 147.135 875.716 147.852 874.805 148.242C874.154 148.893 873.633 149.544 873.242 150.195L869.336 152.539C867.773 153.516 866.276 154.167 864.844 154.492C862.63 155.013 860.482 154.948 858.398 154.297C856.315 153.646 854.362 152.734 852.539 151.562C851.302 151.693 850.358 151.465 849.707 150.879C849.056 150.358 848.177 149.935 847.07 149.609C845.638 148.307 844.076 147.135 842.383 146.094C840.625 144.987 839.388 143.555 838.672 141.797L837.793 137.5C837.533 136.198 837.24 134.896 836.914 133.594C836.654 132.487 836.621 131.25 836.816 129.883C837.012 128.711 837.044 127.409 836.914 125.977C836.914 125.26 836.914 124.609 836.914 124.023C836.914 123.372 836.882 122.819 836.816 122.363C836.751 121.387 837.044 120.182 837.695 118.75C838.086 117.904 838.411 117.122 838.672 116.406C838.932 115.69 839.128 115.072 839.258 114.551C839.388 114.03 839.518 113.542 839.648 113.086C839.779 112.565 839.909 112.109 840.039 111.719C840.234 111.393 840.43 111.068 840.625 110.742C840.82 110.352 841.016 109.961 841.211 109.57C841.406 109.18 841.602 108.822 841.797 108.496C842.057 108.105 842.318 107.747 842.578 107.422C843.359 106.25 844.271 105.078 845.312 103.906C846.354 102.734 847.396 101.628 848.438 100.586C849.154 99.6094 849.87 98.763 850.586 98.0469C851.758 96.875 852.865 95.8984 853.906 95.1172C854.948 94.3359 856.12 93.2943 857.422 91.9922C857.682 91.6016 858.008 91.276 858.398 91.0156L859.57 90.2344C860.872 89.4531 862.077 88.8021 863.184 88.2812C864.29 87.7604 865.56 87.1745 866.992 86.5234C868.229 85.9375 869.238 85.5794 870.02 85.4492C870.54 85.319 871.061 85.2214 871.582 85.1562C872.168 85.026 872.786 84.8958 873.438 84.7656H875.781C876.497 84.7656 877.148 84.6354 877.734 84.375C877.344 83.3333 877.799 82.6172 879.102 82.2266C880.404 81.8359 881.38 81.7057 882.031 81.8359C883.333 81.8359 884.375 82.1289 885.156 82.7148C885.938 83.3008 886.654 83.9844 887.305 84.7656C888.607 85.6771 890.039 87.0443 891.602 88.8672C891.927 89.1927 892.253 89.388 892.578 89.4531C892.904 89.5182 893.229 89.7135 893.555 90.0391C894.076 90.8203 894.434 91.5365 894.629 92.1875C894.824 92.9688 895.247 93.6849 895.898 94.3359C896.289 94.5964 896.68 94.9219 897.07 95.3125C897.461 95.7031 897.721 96.224 897.852 96.875C899.219 97.3958 900.456 97.7865 901.562 98.0469C902.148 98.3073 902.832 98.3724 903.613 98.2422C904.329 98.112 905.143 98.112 906.055 98.2422C906.641 98.3073 907.227 98.4701 907.812 98.7305C908.333 98.9258 908.919 99.0234 909.57 99.0234C910.547 98.9583 911.621 98.6979 912.793 98.2422C913.9 97.8516 915.169 97.7865 916.602 98.0469C918.555 98.5026 920.605 98.3073 922.754 97.4609C924.902 96.5495 927.083 95.9635 929.297 95.7031C929.948 95.7031 930.404 95.6706 930.664 95.6055C930.924 95.5404 931.38 95.5078 932.031 95.5078C932.682 94.987 933.529 94.5964 934.57 94.3359C935.612 94.0755 936.719 93.8151 937.891 93.5547ZM882.031 99.4141C880.729 98.2422 879.98 97.4935 879.785 97.168C879.525 96.7773 879.297 96.5495 879.102 96.4844C878.516 95.8984 877.865 95.5729 877.148 95.5078C876.758 95.4427 876.367 95.3776 875.977 95.3125C875.651 95.2474 875.326 95.1823 875 95.1172C872.917 94.7266 871.191 94.9544 869.824 95.8008C869.173 96.2565 868.49 96.6797 867.773 97.0703C867.122 97.4609 866.471 97.8516 865.82 98.2422C863.737 99.5443 861.914 101.172 860.352 103.125C859.961 103.776 859.538 104.492 859.082 105.273C858.626 106.055 858.268 106.901 858.008 107.812C857.487 108.854 857.031 109.798 856.641 110.645C856.25 111.491 855.924 112.5 855.664 113.672C855.013 114.909 854.622 115.983 854.492 116.895C854.427 117.35 854.362 117.773 854.297 118.164C854.232 118.49 854.167 118.815 854.102 119.141C854.036 119.792 853.939 120.475 853.809 121.191C853.678 121.842 853.548 122.526 853.418 123.242C853.092 124.87 852.93 126.107 852.93 126.953C853.06 127.344 853.255 127.865 853.516 128.516C853.776 129.167 854.036 129.622 854.297 129.883C854.557 130.534 854.85 131.25 855.176 132.031C855.501 132.812 855.794 133.398 856.055 133.789C856.771 134.701 857.617 135.286 858.594 135.547C859.115 135.677 859.668 135.84 860.254 136.035C860.84 136.165 861.458 136.328 862.109 136.523C863.542 137.305 864.518 137.63 865.039 137.5C865.69 137.37 866.081 137.305 866.211 137.305C867.969 136.979 869.466 136.263 870.703 135.156C871.81 134.115 873.112 133.203 874.609 132.422C875.13 131.641 875.651 130.827 876.172 129.98C876.758 129.134 877.376 128.288 878.027 127.441C878.678 126.53 879.264 125.651 879.785 124.805C880.371 123.893 880.924 122.982 881.445 122.07C881.771 121.68 882.096 121.094 882.422 120.312C882.552 119.987 882.682 119.694 882.812 119.434C882.943 119.108 883.073 118.815 883.203 118.555C884.115 117.448 884.538 116.862 884.473 116.797C884.408 116.732 884.44 116.536 884.57 116.211C885.417 114.258 885.807 112.76 885.742 111.719C885.677 110.677 885.677 109.635 885.742 108.594C885.417 107.878 885.124 107.129 884.863 106.348C884.603 105.566 884.342 104.753 884.082 103.906C883.561 102.148 882.878 100.651 882.031 99.4141Z"
        fill="white" />
</svg>